<svg fill="none" height="785" viewBox="0 0 1589 785" width="1589" xmlns="http://www.w3.org/2000/svg"><path d="m70.5863 11.4134c-33.0512 0-59.8466 26.7905-59.8466 59.8408v643.4048c0 33.05 26.7954 59.841 59.8466 59.841h1447.8237c33.06 0 59.85-26.791 59.85-59.841v-643.4047c0-33.0504-26.79-59.8409-59.85-59.8409z" fill="#fff" stroke="#f2f2f2" stroke-width="21"/><rect fill="#bde3ff" height="175.279" rx="6" stroke="#22b4ff" stroke-linecap="round" stroke-width="10" width="438.197" x="160.397" y="130.476"/><path d="m1186.55 131.892c1.43-.572 3.03-.572 4.46 0l213.1 81.639c5.03 2.012 5.03 9.13 0 11.142l-213.1 81.639c-1.43.573-3.03.573-4.46 0l-213.098-81.639c-5.029-2.012-5.029-9.13 0-11.142z" fill="#ffe8a3" stroke="#ddbc00" stroke-linecap="round" stroke-width="10"/><path d="m611.594 213.602c-3.037 0-5.5 2.462-5.5 5.5s2.463 5.5 5.5 5.5zm290.087 29.921c0 3.038 3.72 5.185 6.35 3.667l42.299-24.421c2.63-1.519 2.63-5.815 0-7.334l-42.299-24.421c-2.63-1.518-6.35.63-6.35 3.667zm-290.087-18.921h295.587v-11h-295.587z" fill="#8b8b8b"/><rect fill="#aff4c6" height="175.279" rx="70.1116" stroke="#65bf8c" stroke-dasharray="20 20" stroke-linecap="round" stroke-width="10" width="438.197" x="923.295" y="508.47"/><path d="m1194.28 319.742c0-3.038-2.46-5.5-5.5-5.5s-5.5 2.462-5.5 5.5zm-338.985 300.789c0 3.037 3.72 5.185 6.351 3.666l42.298-24.421c2.631-1.518 2.631-5.814 0-7.333l-42.298-24.421c-2.631-1.519-6.351.629-6.351 3.667zm43.888-29.921c-3.038 0-5.5 2.462-5.5 5.5 0 3.037 2.462 5.5 5.5 5.5zm-22.224 11c3.038 0 5.5-2.463 5.5-5.5 0-3.038-2.462-5.5-5.5-5.5zm-22.224-11c-3.037 0-5.5 2.462-5.5 5.5 0 3.037 2.463 5.5 5.5 5.5zm-22.224 11c3.038 0 5.5-2.463 5.5-5.5 0-3.038-2.462-5.5-5.5-5.5zm-22.224-11c-3.037 0-5.5 2.462-5.5 5.5 0 3.037 2.463 5.5 5.5 5.5zm-22.224 11c3.038 0 5.5-2.463 5.5-5.5 0-3.038-2.462-5.5-5.5-5.5zm-22.224-11c-3.037 0-5.5 2.462-5.5 5.5 0 3.037 2.463 5.5 5.5 5.5zm-22.224 11c3.038 0 5.5-2.463 5.5-5.5 0-3.038-2.462-5.5-5.5-5.5zm-22.223-11c-3.038 0-5.5 2.462-5.5 5.5 0 3.037 2.462 5.5 5.5 5.5zm-22.224 11c3.037 0 5.5-2.463 5.5-5.5 0-3.038-2.463-5.5-5.5-5.5zm-22.224-11c-3.038 0-5.5 2.462-5.5 5.5 0 3.037 2.462 5.5 5.5 5.5zm-22.224 11c3.037 0 5.5-2.463 5.5-5.5 0-3.038-2.463-5.5-5.5-5.5zm-22.224-11c-3.038 0-5.5 2.462-5.5 5.5 0 3.037 2.462 5.5 5.5 5.5zm-22.224 11c3.037 0 5.5-2.463 5.5-5.5 0-3.038-2.463-5.5-5.5-5.5zm-22.224-11c-3.038 0-5.5 2.462-5.5 5.5 0 3.037 2.462 5.5 5.5 5.5zm-22.224 11c3.038 0 5.5-2.463 5.5-5.5 0-3.038-2.462-5.5-5.5-5.5zm-22.224-11c-3.037 0-5.5 2.462-5.5 5.5 0 3.037 2.463 5.5 5.5 5.5zm-22.224 11c3.038 0 5.5-2.463 5.5-5.5 0-3.038-2.462-5.5-5.5-5.5zm-22.224-11c-3.037 0-5.5 2.462-5.5 5.5 0 3.037 2.463 5.5 5.5 5.5zm-22.224 11c3.038 0 5.5-2.463 5.5-5.5 0-3.038-2.462-5.5-5.5-5.5zm-22.224-11c-3.037 0-5.5 2.462-5.5 5.5 0 3.037 2.463 5.5 5.5 5.5zm-22.224 11c3.038 0 5.5-2.463 5.5-5.5 0-3.038-2.462-5.5-5.5-5.5zm-22.224-11c-3.037 0-5.5 2.462-5.5 5.5 0 3.037 2.463 5.5 5.5 5.5zm-22.223 11c3.037 0 5.5-2.463 5.5-5.5 0-3.038-2.463-5.5-5.5-5.5zm-22.224-11c-3.038 0-5.5 2.462-5.5 5.5 0 3.037 2.462 5.5 5.5 5.5zm-22.224 11c3.037 0 5.5-2.463 5.5-5.5 0-3.038-2.463-5.5-5.5-5.5zm-22.224-11c-3.038 0-5.5 2.462-5.5 5.5 0 3.037 2.462 5.5 5.5 5.5zm-22.224 11c3.037 0 5.5-2.463 5.5-5.5 0-3.038-2.463-5.5-5.5-5.5zm-18.192-12.402c-2.806-1.164-6.024.168-7.188 2.974-1.163 2.806.168 6.023 2.974 7.187zm-20.179-5.805c1.163 2.806 4.381 4.138 7.187 2.974 2.806-1.163 4.137-4.381 2.974-7.187zm8.759-21.308c0-3.038-2.463-5.5-5.5-5.5-3.038 0-5.5 2.462-5.5 5.5zm-11-20.031c0 3.038 2.462 5.5 5.5 5.5 3.037 0 5.5-2.462 5.5-5.5zm11-20.03c0-3.038-2.463-5.5-5.5-5.5-3.038 0-5.5 2.462-5.5 5.5zm-11-20.03c0 3.037 2.462 5.5 5.5 5.5 3.037 0 5.5-2.463 5.5-5.5zm11-20.031c0-3.037-2.463-5.5-5.5-5.5-3.038 0-5.5 2.463-5.5 5.5zm-11-20.03c0 3.038 2.462 5.5 5.5 5.5 3.037 0 5.5-2.462 5.5-5.5zm11-20.03c0-3.038-2.463-5.5-5.5-5.5-3.038 0-5.5 2.462-5.5 5.5zm-11-20.031c0 3.038 2.462 5.5 5.5 5.5 3.037 0 5.5-2.462 5.5-5.5zm12.402-17.095c1.163-2.806-.168-6.024-2.974-7.187-2.806-1.164-6.024.168-7.187 2.974zm5.804-20.179c-2.806 1.163-4.137 4.381-2.973 7.187 1.163 2.806 4.381 4.137 7.187 2.974zm22.253 8.759c3.038 0 5.5-2.462 5.5-5.5 0-3.037-2.462-5.5-5.5-5.5zm21.919-11c-3.037 0-5.5 2.463-5.5 5.5 0 3.038 2.463 5.5 5.5 5.5zm21.919 11c3.038 0 5.5-2.462 5.5-5.5 0-3.037-2.462-5.5-5.5-5.5zm21.919-11c-3.038 0-5.5 2.463-5.5 5.5 0 3.038 2.462 5.5 5.5 5.5zm21.919 11c3.037 0 5.5-2.462 5.5-5.5 0-3.037-2.463-5.5-5.5-5.5zm21.919-11c-3.038 0-5.5 2.463-5.5 5.5 0 3.038 2.462 5.5 5.5 5.5zm21.918 11c3.038 0 5.5-2.462 5.5-5.5 0-3.037-2.462-5.5-5.5-5.5zm21.919-11c-3.037 0-5.5 2.463-5.5 5.5 0 3.038 2.463 5.5 5.5 5.5zm21.919 11c3.038 0 5.5-2.462 5.5-5.5 0-3.037-2.462-5.5-5.5-5.5zm21.919-11c-3.037 0-5.5 2.463-5.5 5.5 0 3.038 2.463 5.5 5.5 5.5zm21.919 11c3.037 0 5.5-2.462 5.5-5.5 0-3.037-2.463-5.5-5.5-5.5zm21.919-11c-3.038 0-5.5 2.463-5.5 5.5 0 3.038 2.462 5.5 5.5 5.5zm21.919 11c3.037 0 5.5-2.462 5.5-5.5 0-3.037-2.463-5.5-5.5-5.5zm21.918-11c-3.037 0-5.5 2.463-5.5 5.5 0 3.038 2.463 5.5 5.5 5.5zm21.919 11c3.038 0 5.5-2.462 5.5-5.5 0-3.037-2.462-5.5-5.5-5.5zm21.919-11c-3.037 0-5.5 2.463-5.5 5.5 0 3.038 2.463 5.5 5.5 5.5zm21.919 11c3.038 0 5.5-2.462 5.5-5.5 0-3.037-2.462-5.5-5.5-5.5zm21.919-11c-3.038 0-5.5 2.463-5.5 5.5 0 3.038 2.462 5.5 5.5 5.5zm21.919 11c3.037 0 5.5-2.462 5.5-5.5 0-3.037-2.463-5.5-5.5-5.5zm21.919-11c-3.038 0-5.5 2.463-5.5 5.5 0 3.038 2.462 5.5 5.5 5.5zm21.918 11c3.038 0 5.5-2.462 5.5-5.5 0-3.037-2.462-5.5-5.5-5.5zm21.919-11c-3.037 0-5.5 2.463-5.5 5.5 0 3.038 2.463 5.5 5.5 5.5zm21.919 11c3.038 0 5.5-2.462 5.5-5.5 0-3.037-2.462-5.5-5.5-5.5zm21.919-11c-3.037 0-5.5 2.463-5.5 5.5 0 3.038 2.463 5.5 5.5 5.5zm21.919 11c3.038 0 5.5-2.462 5.5-5.5 0-3.037-2.462-5.5-5.5-5.5zm21.919-11c-3.038 0-5.5 2.463-5.5 5.5 0 3.038 2.462 5.5 5.5 5.5zm21.919 11c3.037 0 5.5-2.462 5.5-5.5 0-3.037-2.463-5.5-5.5-5.5zm21.919-11c-3.038 0-5.5 2.463-5.5 5.5 0 3.038 2.462 5.5 5.5 5.5zm21.918 11c3.038 0 5.5-2.462 5.5-5.5 0-3.037-2.462-5.5-5.5-5.5zm21.919-11c-3.037 0-5.5 2.463-5.5 5.5 0 3.038 2.463 5.5 5.5 5.5zm21.919 11c3.038 0 5.5-2.462 5.5-5.5 0-3.037-2.462-5.5-5.5-5.5zm21.919-11c-3.037 0-5.5 2.463-5.5 5.5 0 3.038 2.463 5.5 5.5 5.5zm21.921 11c3.04 0 5.5-2.462 5.5-5.5 0-3.037-2.46-5.5-5.5-5.5zm21.92-11c-3.04 0-5.5 2.463-5.5 5.5 0 3.038 2.46 5.5 5.5 5.5zm21.92 11c3.03 0 5.5-2.462 5.5-5.5 0-3.037-2.47-5.5-5.5-5.5zm21.91-11c-3.03 0-5.5 2.463-5.5 5.5 0 3.038 2.47 5.5 5.5 5.5zm21.92 11c3.04 0 5.5-2.462 5.5-5.5 0-3.037-2.46-5.5-5.5-5.5zm21.92-11c-3.04 0-5.5 2.463-5.5 5.5 0 3.038 2.46 5.5 5.5 5.5zm21.92 11c3.04 0 5.5-2.462 5.5-5.5 0-3.037-2.46-5.5-5.5-5.5zm21.92-11c-3.04 0-5.5 2.463-5.5 5.5 0 3.038 2.46 5.5 5.5 5.5zm22.25 8.76c2.81-1.164 4.14-4.382 2.98-7.188-1.17-2.806-4.38-4.137-7.19-2.973zm5.81-20.18c-1.17 2.806.17 6.024 2.97 7.188 2.81 1.163 6.03-.168 7.19-2.974zm12.4-18.111c0-3.038-2.46-5.5-5.5-5.5s-5.5 2.462-5.5 5.5zm-11-22.063c0 3.038 2.46 5.5 5.5 5.5s5.5-2.462 5.5-5.5zm-306.321 259.837h-22.224v11h22.224zm-44.448 0h-22.224v11h22.224zm-44.448 0h-22.224v11h22.224zm-44.448 0h-22.223v11h22.223zm-44.447 0h-22.224v11h22.224zm-44.448 0h-22.224v11h22.224zm-44.448 0h-22.224v11h22.224zm-44.448 0h-22.224v11h22.224zm-44.448 0h-22.224v11h22.224zm-44.448 0h-22.224v11h22.224zm-44.448 0h-22.224v11h22.224zm-44.447 0h-22.224v11h22.224zm-44.448 0h-22.224v11h22.224zm-44.448 0h-11.112v11h11.112zm-11.112 0c-2.519 0-4.907-.501-7.08-1.402l-4.214 10.161c3.486 1.446 7.304 2.241 11.294 2.241zm-17.098-11.42c-.902-2.174-1.402-4.562-1.402-7.08h-11c0 3.989.795 7.807 2.241 11.293zm-1.402-7.08v-10.015h-11v10.015zm0-30.046v-20.03h-11v20.03zm0-40.06v-20.031h-11v20.031zm0-40.061v-20.03h-11v20.03zm0-40.061v-10.015h-11v10.015zm0-10.015c0-2.518.5-4.906 1.402-7.08l-10.161-4.213c-1.446 3.485-2.241 7.303-2.241 11.293zm11.42-17.098c2.173-.901 4.561-1.402 7.08-1.402v-11c-3.99 0-7.808.795-11.294 2.241zm7.08-1.402h10.959v-11h-10.959zm32.878 0h21.919v-11h-21.919zm43.838 0h21.919v-11h-21.919zm43.838 0h21.918v-11h-21.918zm43.837 0h21.919v-11h-21.919zm43.838 0h21.919v-11h-21.919zm43.838 0h21.919v-11h-21.919zm43.837 0h21.919v-11h-21.919zm43.838 0h21.919v-11h-21.919zm43.838 0h21.919v-11h-21.919zm43.838 0h21.918v-11h-21.918zm43.837 0h21.919v-11h-21.919zm43.838 0h21.919v-11h-21.919zm43.838 0h21.919v-11h-21.919zm43.838 0h21.918v-11h-21.918zm43.837 0h21.919v-11h-21.919zm43.838 0h21.921v-11h-21.921zm43.841 0h21.92v-11h-21.92zm43.83 0h21.92v-11h-21.92zm43.84 0h21.92v-11h-21.92zm43.84 0h10.96v-11h-10.96zm10.96 0c3.99 0 7.81-.795 11.29-2.24l-4.21-10.161c-2.17.901-4.56 1.401-7.08 1.401zm27.26-18.206c1.44-3.486 2.24-7.304 2.24-11.294h-11c0 2.519-.5 4.907-1.4 7.08zm2.24-11.294v-11.031h-11v11.031zm0-33.094v-11.031h-11v11.031z" fill="#8b8b8b"/></svg>