<svg fill="none" height="770" viewBox="0 0 1585 770" width="1585" xmlns="http://www.w3.org/2000/svg"><rect fill="#2b3039" height="752" rx="50" stroke="#626c7e" stroke-linecap="round" stroke-width="17" width="1567" x="9" y="9"/><path d="m275.015 287v-32.117h-10.401v-7.507h10.401v-2.161c0-2.612.415-4.919 1.245-6.921s2.014-3.687 3.552-5.054 3.406-2.392 5.603-3.076c2.197-.708 4.651-1.062 7.361-1.062.854 0 1.672.037 2.453.11.806.049 1.587.122 2.344.22.757.097 1.514.207 2.271.329.781.122 1.587.257 2.417.403l-.659 7.983c-.928-.195-1.978-.366-3.15-.512-1.172-.147-2.551-.22-4.138-.22-1.709 0-3.162.195-4.358.586s-2.148.964-2.856 1.721c-.635.635-1.111 1.416-1.429 2.344-.293.928-.439 1.977-.439 3.149v2.161h14.282v7.507h-14.282v32.117zm59.397 0-.586-5.566c-1.343 1.977-2.966 3.527-4.871 4.65-1.879 1.124-3.942 1.685-6.188 1.685-2.051 0-3.931-.317-5.64-.952s-3.174-1.648-4.395-3.04c-1.22-1.367-2.173-3.112-2.856-5.236-.659-2.149-.989-4.725-.989-7.728v-23.437h10.181v23.511c0 1.611.11 2.966.329 4.065.245 1.098.623 1.977 1.136 2.636.512.684 1.184 1.172 2.014 1.465s1.843.44 3.039.44c1.075 0 2.039-.11 2.893-.33.879-.22 1.648-.537 2.308-.952.561-.366 1.062-.806 1.501-1.318.439-.513.818-1.087 1.135-1.722v-27.795h10.218v39.624zm17.539 0v-39.624h9.229l.623 5.493c.512-.732 1.074-1.404 1.684-2.014s1.257-1.16 1.941-1.648c1.172-.83 2.454-1.465 3.845-1.904 1.392-.44 2.869-.659 4.431-.659 2.002 0 3.833.293 5.494.878 1.66.586 3.1 1.514 4.321 2.784 1.196 1.294 2.124 2.954 2.783 4.98.684 2.002 1.025 4.443 1.025 7.324v24.39h-10.18v-24.243c0-1.563-.183-2.844-.55-3.845-.341-1.026-.842-1.831-1.501-2.417s-1.453-.989-2.38-1.209c-.928-.244-1.978-.366-3.15-.366-.976 0-1.88.11-2.71.33-.805.219-1.526.549-2.16.988-.513.318-.977.696-1.392 1.136-.415.439-.793.927-1.135 1.464v28.162zm60.936-7.397c1.001 0 1.953-.147 2.856-.44.904-.293 1.697-.708 2.381-1.245.683-.537 1.208-1.184 1.574-1.941.391-.757.562-1.599.513-2.527h9.595c.049 2.051-.379 3.955-1.282 5.713-.879 1.758-2.087 3.272-3.625 4.541-1.538 1.27-3.333 2.271-5.384 3.003-2.026.708-4.174 1.062-6.445 1.062-3.076 0-5.774-.513-8.093-1.538-2.32-1.05-4.248-2.478-5.786-4.285-1.563-1.806-2.747-3.918-3.553-6.335-.781-2.442-1.171-5.054-1.171-7.837v-1.099c0-2.783.39-5.383 1.171-7.8.782-2.441 1.954-4.565 3.516-6.372 1.563-1.807 3.491-3.235 5.786-4.285 2.319-1.05 5.005-1.574 8.057-1.574 2.441 0 4.699.366 6.775 1.098 2.075.733 3.869 1.758 5.383 3.076 1.489 1.343 2.649 2.967 3.479 4.871.83 1.88 1.221 3.992 1.172 6.335h-9.595c.049-.976-.098-1.904-.439-2.783-.342-.879-.843-1.636-1.502-2.27-.659-.635-1.452-1.136-2.38-1.502-.928-.39-1.941-.586-3.04-.586-1.611 0-2.942.33-3.991.989-1.05.659-1.88 1.538-2.491 2.637-.634 1.098-1.086 2.356-1.355 3.772-.244 1.416-.366 2.881-.366 4.394v1.099c0 1.538.122 3.027.366 4.468.245 1.416.684 2.661 1.319 3.735.61 1.099 1.44 1.978 2.49 2.637 1.074.659 2.429.989 4.065.989zm44.529-41.932v9.705h14.795v7.507h-14.795v17.029c0 1.441.159 2.649.476 3.626.342.952.818 1.709 1.428 2.27.611.586 1.343 1.001 2.198 1.245.879.244 1.855.366 2.929.366.782 0 1.575-.036 2.381-.109.83-.074 1.623-.171 2.38-.293.733-.098 1.416-.208 2.051-.33.659-.122 1.221-.244 1.684-.366l.989 6.994c-.708.415-1.538.782-2.49 1.099-.952.293-1.965.537-3.04.732-1.074.196-2.197.342-3.369.44-1.147.122-2.282.183-3.405.183-2.173 0-4.151-.281-5.933-.842-1.758-.586-3.259-1.489-4.504-2.71-1.27-1.196-2.247-2.722-2.93-4.578-.684-1.88-1.026-4.126-1.026-6.738v-18.018h-9.045v-7.507h9.045v-9.705zm27.427 9.705h21.57v31.348h10.73v8.276h-32.3v-8.276h11.28v-23.035h-11.28zm10.547-10.144c0-.781.134-1.502.403-2.161.293-.683.696-1.269 1.208-1.758.513-.463 1.124-.83 1.832-1.098.732-.269 1.538-.403 2.417-.403 1.806 0 3.234.513 4.284 1.538 1.074 1.001 1.612 2.295 1.612 3.882s-.538 2.893-1.612 3.918c-1.05 1.001-2.478 1.502-4.284 1.502-.879 0-1.685-.134-2.417-.403-.708-.269-1.319-.647-1.832-1.135-.512-.464-.915-1.026-1.208-1.685-.269-.683-.403-1.416-.403-2.197zm28.746 29.59c0-2.881.415-5.542 1.245-7.984.83-2.465 2.051-4.602 3.662-6.408 1.587-1.807 3.528-3.223 5.823-4.248 2.319-1.026 4.968-1.538 7.946-1.538 2.979 0 5.628.512 7.947 1.538 2.32 1.025 4.285 2.441 5.896 4.248 1.587 1.806 2.796 3.943 3.626 6.408.83 2.442 1.245 5.103 1.245 7.984v.769c0 2.905-.415 5.591-1.245 8.056-.83 2.442-2.039 4.566-3.626 6.373-1.587 1.806-3.54 3.222-5.859 4.248-2.32 1.001-4.956 1.501-7.91 1.501-2.979 0-5.64-.5-7.984-1.501-2.319-1.026-4.272-2.442-5.859-4.248-1.611-1.807-2.832-3.931-3.662-6.373-.83-2.465-1.245-5.151-1.245-8.056zm10.18.769c0 1.66.159 3.222.476 4.687.318 1.441.818 2.698 1.502 3.772.683 1.099 1.562 1.966 2.637 2.6 1.098.635 2.417.953 3.955.953 1.489 0 2.771-.318 3.845-.953 1.074-.634 1.953-1.501 2.637-2.6.659-1.074 1.147-2.331 1.464-3.772.318-1.465.477-3.027.477-4.687v-.769c0-1.612-.159-3.137-.477-4.578-.317-1.44-.805-2.71-1.464-3.808-.684-1.099-1.563-1.966-2.637-2.601-1.074-.634-2.381-.952-3.919-.952-1.513 0-2.807.318-3.881.952-1.075.635-1.954 1.502-2.637 2.601-.684 1.098-1.184 2.368-1.502 3.808-.317 1.441-.476 2.966-.476 4.578zm34.605 19.409v-39.624h9.229l.622 5.493c.513-.732 1.074-1.404 1.685-2.014.61-.61 1.257-1.16 1.941-1.648 1.172-.83 2.453-1.465 3.845-1.904 1.392-.44 2.869-.659 4.431-.659 2.002 0 3.833.293 5.493.878 1.66.586 3.101 1.514 4.322 2.784 1.196 1.294 2.124 2.954 2.783 4.98.683 2.002 1.025 4.443 1.025 7.324v24.39h-10.18v-24.243c0-1.563-.184-2.844-.55-3.845-.342-1.026-.842-1.831-1.501-2.417s-1.453-.989-2.381-1.209c-.927-.244-1.977-.366-3.149-.366-.977 0-1.88.11-2.71.33-.806.219-1.526.549-2.161.988-.512.318-.976.696-1.391 1.136-.415.439-.794.927-1.136 1.464v28.162zm-199.428 105.603c1.001 0 1.953-.147 2.856-.44.904-.293 1.697-.708 2.381-1.245.683-.537 1.208-1.184 1.574-1.941.391-.757.562-1.599.513-2.527h9.595c.049 2.051-.379 3.955-1.282 5.713-.879 1.758-2.087 3.272-3.625 4.541-1.538 1.27-3.333 2.271-5.384 3.003-2.026.708-4.174 1.062-6.445 1.062-3.076 0-5.774-.513-8.093-1.538-2.32-1.05-4.248-2.478-5.786-4.285-1.563-1.806-2.747-3.918-3.553-6.335-.781-2.442-1.171-5.054-1.171-7.837v-1.099c0-2.783.39-5.383 1.171-7.8.782-2.441 1.954-4.565 3.516-6.372 1.563-1.807 3.491-3.235 5.786-4.285 2.32-1.05 5.005-1.574 8.057-1.574 2.441 0 4.7.366 6.775 1.098 2.075.733 3.869 1.758 5.383 3.076 1.489 1.343 2.649 2.967 3.479 4.871.83 1.88 1.221 3.992 1.172 6.335h-9.595c.049-.976-.097-1.904-.439-2.783s-.843-1.636-1.502-2.27c-.659-.635-1.452-1.136-2.38-1.502-.928-.39-1.941-.586-3.04-.586-1.611 0-2.942.33-3.991.989-1.05.659-1.88 1.538-2.491 2.637-.634 1.098-1.086 2.356-1.355 3.772-.244 1.416-.366 2.881-.366 4.394v1.099c0 1.538.122 3.027.366 4.468.245 1.416.684 2.661 1.319 3.735.61 1.099 1.44 1.978 2.49 2.637 1.074.659 2.429.989 4.065.989zm24.461-12.781c0-2.881.415-5.542 1.245-7.984.83-2.465 2.051-4.602 3.662-6.408 1.587-1.807 3.528-3.223 5.823-4.248 2.319-1.026 4.968-1.538 7.947-1.538 2.978 0 5.627.512 7.946 1.538 2.32 1.025 4.285 2.441 5.896 4.248 1.587 1.806 2.796 3.943 3.626 6.408.83 2.442 1.245 5.103 1.245 7.984v.769c0 2.905-.415 5.591-1.245 8.056-.83 2.442-2.039 4.566-3.626 6.373-1.587 1.806-3.54 3.222-5.859 4.248-2.319 1.001-4.956 1.501-7.91 1.501-2.979 0-5.64-.5-7.984-1.501-2.319-1.026-4.272-2.442-5.859-4.248-1.611-1.807-2.832-3.931-3.662-6.373-.83-2.465-1.245-5.151-1.245-8.056zm10.18.769c0 1.66.159 3.222.477 4.687.317 1.441.817 2.698 1.501 3.772.684 1.099 1.563 1.966 2.637 2.6 1.098.635 2.417.953 3.955.953 1.489 0 2.771-.318 3.845-.953 1.074-.634 1.953-1.501 2.637-2.6.659-1.074 1.147-2.331 1.465-3.772.317-1.465.476-3.027.476-4.687v-.769c0-1.612-.159-3.137-.476-4.578-.318-1.44-.806-2.71-1.465-3.808-.684-1.099-1.563-1.966-2.637-2.601-1.074-.634-2.38-.952-3.918-.952-1.514 0-2.808.318-3.882.952-1.074.635-1.953 1.502-2.637 2.601-.684 1.098-1.184 2.368-1.501 3.808-.318 1.441-.477 2.966-.477 4.578zm34.605 19.409v-39.624h9.229l.622 5.493c.513-.732 1.075-1.404 1.685-2.014s1.257-1.16 1.941-1.648c1.172-.83 2.454-1.465 3.845-1.904 1.392-.44 2.869-.659 4.431-.659 2.002 0 3.833.293 5.493.878 1.661.586 3.101 1.514 4.322 2.784 1.196 1.294 2.124 2.954 2.783 4.98.684 2.002 1.025 4.443 1.025 7.324v24.39h-10.18v-24.243c0-1.563-.183-2.844-.55-3.845-.341-1.026-.842-1.831-1.501-2.417s-1.453-.989-2.38-1.209c-.928-.244-1.978-.366-3.15-.366-.976 0-1.88.11-2.71.33-.806.219-1.526.549-2.161.988-.512.318-.976.696-1.391 1.136-.415.439-.794.927-1.135 1.464v28.162zm68.956-10.876c0-.611-.147-1.148-.44-1.612-.268-.464-.756-.903-1.464-1.318-.733-.391-1.697-.757-2.894-1.099-1.196-.342-2.709-.683-4.541-1.025-2.319-.464-4.443-1.038-6.372-1.721-1.904-.708-3.54-1.563-4.907-2.564-1.367-.976-2.441-2.112-3.223-3.406-.756-1.294-1.135-2.783-1.135-4.467 0-1.636.391-3.199 1.172-4.688s1.904-2.795 3.369-3.918 3.247-2.014 5.347-2.674c2.1-.659 4.468-.988 7.104-.988 2.759 0 5.237.329 7.435.988 2.197.635 4.064 1.514 5.603 2.637 1.513 1.148 2.673 2.502 3.479 4.065.805 1.562 1.208 3.259 1.208 5.09h-10.181c0-.659-.109-1.269-.329-1.831-.22-.586-.55-1.111-.989-1.574-.61-.611-1.44-1.099-2.49-1.465-1.026-.366-2.271-.55-3.736-.55-1.245 0-2.331.122-3.259.367-.928.244-1.684.586-2.27 1.025-.537.391-.953.854-1.245 1.392-.269.512-.403 1.062-.403 1.648 0 .585.122 1.135.366 1.647.244.489.683.928 1.318 1.319.611.415 1.453.793 2.527 1.135 1.074.317 2.442.598 4.102.842 2.392.391 4.614.892 6.665 1.502 2.05.61 3.821 1.391 5.31 2.344 1.489.976 2.649 2.16 3.479 3.552.854 1.367 1.282 3.003 1.282 4.907 0 1.758-.428 3.381-1.282 4.871-.83 1.465-2.014 2.734-3.552 3.808-1.563 1.075-3.443 1.917-5.64 2.527-2.197.586-4.651.879-7.361.879-2.978 0-5.615-.391-7.91-1.172-2.271-.781-4.175-1.806-5.713-3.076-1.538-1.245-2.71-2.661-3.516-4.248-.781-1.611-1.171-3.223-1.171-4.834h9.704c.073 1.074.366 2.002.879 2.783.513.757 1.172 1.367 1.978 1.831.805.489 1.721.843 2.746 1.062 1.05.22 2.124.33 3.223.33 1.318 0 2.466-.11 3.442-.33 1.001-.244 1.819-.561 2.454-.952.61-.391 1.062-.842 1.355-1.355.317-.513.476-1.074.476-1.684zm36.509-38.453v9.705h14.795v7.507h-14.795v17.029c0 1.441.159 2.649.476 3.626.342.952.818 1.709 1.428 2.27.611.586 1.343 1.001 2.198 1.245.878.244 1.855.366 2.929.366.782 0 1.575-.036 2.381-.109.83-.074 1.623-.171 2.38-.293.732-.098 1.416-.208 2.051-.33.659-.122 1.22-.244 1.684-.366l.989 6.994c-.708.415-1.538.782-2.49 1.099-.952.293-1.965.537-3.04.732-1.074.196-2.197.342-3.369.44-1.147.122-2.283.183-3.406.183-2.172 0-4.15-.281-5.932-.842-1.758-.586-3.259-1.489-4.505-2.71-1.269-1.196-2.246-2.722-2.929-4.578-.684-1.88-1.026-4.126-1.026-6.738v-18.018h-9.045v-7.507h9.045v-9.705zm-163.798 121.973c1.538 0 2.954.109 4.248.329 1.318.195 2.38.415 3.186.659l-1.501 10.144c-1.343-.317-2.722-.549-4.139-.695-1.391-.171-2.722-.257-3.991-.257-1.319 0-2.515.122-3.589.366-1.05.22-1.99.562-2.82 1.026-1.001.537-1.855 1.221-2.563 2.051s-1.294 1.806-1.758 2.929v23.804h-10.181v-39.624h9.485l.403 5.603.073.879c1.611-2.246 3.54-4.004 5.786-5.274 2.246-1.293 4.7-1.94 7.361-1.94zm34.165 41.088c-3.051 0-5.822-.5-8.313-1.501-2.49-1.001-4.626-2.368-6.408-4.102-1.782-1.709-3.162-3.723-4.138-6.042-.953-2.344-1.429-4.846-1.429-7.507v-1.465c0-3.028.476-5.786 1.429-8.277.952-2.514 2.282-4.675 3.991-6.482 1.709-1.806 3.736-3.21 6.079-4.211 2.344-1.001 4.895-1.501 7.654-1.501 2.857 0 5.396.476 7.617 1.428 2.247.928 4.151 2.246 5.713 3.955 1.538 1.709 2.71 3.772 3.516 6.189.806 2.392 1.208 5.041 1.208 7.947v4.321h-26.879v.11c.341 1.587.781 2.868 1.318 3.845.537.952 1.257 1.819 2.161 2.6.927.806 1.989 1.428 3.186 1.868 1.196.439 2.502.659 3.918.659 2.002 0 3.943-.378 5.823-1.135s3.406-1.892 4.577-3.406l5.091 5.493c-1.294 1.831-3.345 3.491-6.153 4.981-2.807 1.489-6.128 2.233-9.961 2.233zm-1.208-32.849c-1.147 0-2.197.208-3.149.623-.953.39-1.783.964-2.491 1.721-.732.757-1.342 1.66-1.831 2.71-.488 1.05-.854 2.222-1.098 3.516h16.699v-.806c0-1.074-.195-2.087-.586-3.04-.391-.952-.928-1.782-1.611-2.49-.684-.683-1.526-1.221-2.527-1.611-.977-.415-2.112-.623-3.406-.623zm44.053-17.212v9.705h14.795v7.507h-14.795v17.029c0 1.441.159 2.649.476 3.626.342.952.818 1.709 1.428 2.27.611.586 1.343 1.001 2.198 1.245.879.244 1.855.366 2.929.366.782 0 1.575-.036 2.381-.109.83-.074 1.623-.171 2.38-.293.733-.098 1.416-.208 2.051-.33.659-.122 1.221-.244 1.684-.366l.989 6.994c-.708.415-1.538.782-2.49 1.099-.952.293-1.965.537-3.04.732-1.074.196-2.197.342-3.369.44-1.147.122-2.282.183-3.405.183-2.173 0-4.151-.281-5.933-.842-1.758-.586-3.259-1.489-4.504-2.71-1.27-1.196-2.247-2.722-2.93-4.578-.684-1.88-1.026-4.126-1.026-6.738v-18.018h-9.045v-7.507h9.045v-9.705zm50.572 49.329-.586-5.566c-1.343 1.977-2.966 3.527-4.871 4.65-1.88 1.124-3.943 1.685-6.189 1.685-2.05 0-3.93-.317-5.639-.952s-3.174-1.648-4.395-3.04c-1.221-1.367-2.173-3.112-2.856-5.236-.66-2.149-.989-4.725-.989-7.728v-23.437h10.181v23.511c0 1.611.109 2.966.329 4.065.244 1.098.623 1.977 1.135 2.636.513.684 1.184 1.172 2.015 1.465.83.293 1.843.44 3.039.44 1.074 0 2.039-.11 2.893-.33.879-.22 1.648-.537 2.307-.952.562-.366 1.062-.806 1.502-1.318.439-.513.818-1.087 1.135-1.722v-27.795h10.217v39.624zm45.994-40.356c1.538 0 2.954.109 4.248.329 1.318.195 2.38.415 3.186.659l-1.502 10.144c-1.342-.317-2.722-.549-4.138-.695-1.391-.171-2.722-.257-3.991-.257-1.319 0-2.515.122-3.589.366-1.05.22-1.99.562-2.82 1.026-1.001.537-1.856 1.221-2.564 2.051s-1.294 1.806-1.757 2.929v23.804h-10.181v-39.624h9.485l.403 5.603.073.879c1.611-2.246 3.54-4.004 5.786-5.274 2.246-1.293 4.7-1.94 7.361-1.94zm14.939 40.356v-39.624h9.229l.622 5.493c.513-.732 1.074-1.404 1.685-2.014.61-.61 1.257-1.16 1.941-1.648 1.172-.83 2.453-1.465 3.845-1.904 1.392-.44 2.869-.659 4.431-.659 2.002 0 3.833.293 5.493.878 1.66.586 3.101 1.514 4.322 2.784 1.196 1.294 2.124 2.954 2.783 4.98.683 2.002 1.025 4.443 1.025 7.324v24.39h-10.18v-24.243c0-1.563-.184-2.844-.55-3.845-.342-1.026-.842-1.831-1.501-2.417s-1.453-.989-2.381-1.209c-.927-.244-1.977-.366-3.149-.366-.977 0-1.88.11-2.71.33-.806.219-1.526.549-2.161.988-.512.318-.976.696-1.391 1.136-.415.439-.794.927-1.136 1.464v28.162zm417.645-13.879c0-1.05-.171-2.002-.512-2.857-.318-.854-.843-1.648-1.575-2.38-.757-.708-1.721-1.367-2.893-1.978-1.172-.61-2.588-1.196-4.248-1.758-2.393-.805-4.566-1.684-6.519-2.636-1.928-.977-3.576-2.112-4.944-3.406-1.391-1.27-2.465-2.747-3.222-4.431-.733-1.709-1.099-3.711-1.099-6.006 0-2.051.33-3.919.989-5.603.683-1.709 1.636-3.198 2.856-4.468 1.221-1.245 2.698-2.246 4.431-3.003 1.758-.781 3.711-1.294 5.86-1.538v-7.947h5.676v8.02c2.026.269 3.858.818 5.493 1.648 1.636.806 3.04 1.856 4.212 3.15 1.294 1.465 2.282 3.222 2.966 5.273.708 2.027 1.062 4.346 1.062 6.958h-8.716c0-1.611-.207-3.039-.622-4.284-.391-1.27-.953-2.332-1.685-3.187-.684-.781-1.526-1.391-2.527-1.831-.976-.439-2.075-.659-3.296-.659-1.391 0-2.6.196-3.625.586-1.001.366-1.831.891-2.49 1.575-.611.659-1.075 1.44-1.392 2.344-.317.879-.476 1.855-.476 2.929 0 1.075.159 2.027.476 2.857.342.83.891 1.587 1.648 2.27.732.708 1.697 1.367 2.893 1.978 1.196.61 2.661 1.221 4.395 1.831 2.392.854 4.553 1.77 6.481 2.746 1.929.953 3.577 2.063 4.944 3.333 1.367 1.294 2.405 2.783 3.113 4.468.733 1.684 1.099 3.662 1.099 5.932 0 2.149-.342 4.078-1.026 5.786-.683 1.685-1.672 3.138-2.966 4.358-1.27 1.246-2.808 2.247-4.614 3.003-1.807.733-3.821 1.209-6.043 1.429v7.104h-5.676v-7.104c-2.002-.196-3.943-.647-5.823-1.355-1.855-.708-3.503-1.734-4.944-3.077-1.44-1.342-2.587-3.027-3.442-5.053-.854-2.051-1.282-4.505-1.282-7.361h8.753c0 1.88.28 3.454.842 4.724.562 1.245 1.282 2.234 2.161 2.966.879.757 1.88 1.294 3.003 1.612 1.123.293 2.258.439 3.405.439 1.465 0 2.759-.183 3.882-.549 1.148-.366 2.1-.891 2.857-1.575.708-.635 1.245-1.404 1.611-2.307s.549-1.892.549-2.966zm46.144 27.172c-2.4-.048-4.47-.598-6.23-1.647-1.76-1.026-3.2-2.369-4.32-4.029-1.15-1.636-1.99-3.467-2.53-5.493-.53-2.002-.8-3.967-.8-5.896v-6.079c0-3.345-.8-5.762-2.38-7.251-1.57-1.489-3.97-2.234-7.22-2.234v-6.482c3.25 0 5.65-.744 7.22-2.234 1.58-1.489 2.38-3.93 2.38-7.324v-6.079c0-2.026.28-4.114.84-6.262.56-2.149 1.45-4.041 2.67-5.677 1.05-1.489 2.43-2.697 4.14-3.625 1.73-.952 3.81-1.44 6.23-1.465l1.02 5.09c-1.58 0-2.83.367-3.73 1.099-.91.708-1.58 1.636-2.02 2.783-.44 1.148-.71 2.429-.8 3.845-.08 1.417-.11 2.82-.11 4.212v6.079c0 2.905-.71 5.481-2.13 7.727-1.39 2.222-3.55 3.919-6.48 5.09 2.96 1.148 5.12 2.832 6.48 5.054 1.39 2.197 2.1 4.749 2.13 7.654v6.079c0 1.392.08 2.795.25 4.211.2 1.416.55 2.698 1.07 3.846.51 1.147 1.19 2.075 2.05 2.783.85.732 1.95 1.099 3.29 1.099zm193.97-5.126c1.32 0 2.4-.367 3.26-1.099.88-.708 1.57-1.636 2.09-2.783.51-1.148.86-2.43 1.06-3.846.22-1.416.33-2.819.33-4.211v-6.079c0-1.611.2-3.125.62-4.541.44-1.441 1.11-2.734 2.01-3.882.66-.903 1.46-1.709 2.38-2.417.96-.732 2.04-1.355 3.26-1.868-1.07-.439-2.05-.964-2.93-1.574-.85-.635-1.61-1.331-2.27-2.088-1.05-1.22-1.83-2.6-2.34-4.138-.49-1.562-.73-3.235-.73-5.017v-6.079c0-1.392-.06-2.795-.19-4.212-.09-1.416-.35-2.697-.77-3.845-.43-1.147-1.11-2.075-2.01-2.783-.9-.732-2.15-1.099-3.73-1.099l1.02-5.09c2.52.025 4.64.549 6.37 1.575 1.76 1.001 3.19 2.331 4.29 3.992 1.14 1.635 1.96 3.479 2.45 5.529.51 2.027.77 4.004.77 5.933v6.079c0 1.416.12 2.661.37 3.735.26 1.075.68 1.99 1.24 2.747.73 1.05 1.77 1.831 3.11 2.344 1.35.488 2.97.732 4.87.732v6.482c-1.92 0-3.55.256-4.87.769-1.31.488-2.35 1.282-3.11 2.38-.54.733-.94 1.636-1.21 2.71-.27 1.05-.4 2.259-.4 3.626v6.079c0 1.929-.28 3.906-.84 5.933-.56 2.026-1.39 3.845-2.49 5.456-1.13 1.66-2.57 3.015-4.32 4.065-1.76 1.05-3.84 1.587-6.23 1.611z" fill="#b373d4"/><path d="m666.183 287v-33.069h-10.62v-6.555h10.62v-2.417c0-2.588.39-4.858 1.172-6.812.805-1.977 1.941-3.637 3.405-4.98 1.465-1.318 3.223-2.319 5.274-3.003 2.075-.684 4.394-1.025 6.958-1.025.903 0 1.782.049 2.637.146.878.073 1.733.171 2.563.293.684.098 1.379.22 2.087.366.708.122 1.429.257 2.161.403l-.696 6.995c-.976-.269-2.087-.501-3.332-.696-1.221-.195-2.613-.293-4.175-.293-1.636 0-3.052.195-4.248.586-1.172.391-2.136.964-2.893 1.721-.708.708-1.245 1.587-1.612 2.637-.341 1.05-.512 2.27-.512 3.662v2.417h14.685v6.555h-14.685v33.069zm31.821-20.178c0-2.881.415-5.542 1.246-7.984.83-2.465 2.038-4.602 3.625-6.408 1.563-1.807 3.479-3.223 5.75-4.248 2.27-1.026 4.858-1.538 7.763-1.538s5.493.512 7.764 1.538c2.295 1.025 4.236 2.441 5.823 4.248 1.562 1.806 2.758 3.943 3.588 6.408.831 2.442 1.246 5.103 1.246 7.984v.769c0 2.905-.415 5.578-1.246 8.02-.83 2.441-2.026 4.565-3.588 6.372-1.563 1.807-3.492 3.223-5.787 4.248-2.27 1.025-4.846 1.538-7.727 1.538-2.905 0-5.505-.513-7.8-1.538s-4.223-2.441-5.786-4.248c-1.587-1.807-2.795-3.931-3.625-6.372-.831-2.442-1.246-5.115-1.246-8.02zm8.753.769c0 1.782.183 3.467.549 5.054.391 1.586.989 2.978 1.795 4.174.781 1.197 1.782 2.149 3.003 2.857 1.22.683 2.673 1.025 4.357 1.025 1.636 0 3.064-.342 4.285-1.025 1.221-.708 2.222-1.66 3.003-2.857.781-1.196 1.355-2.588 1.721-4.174.391-1.587.586-3.272.586-5.054v-.769c0-1.734-.195-3.394-.586-4.981-.39-1.587-.964-2.978-1.721-4.174-.806-1.197-1.819-2.149-3.04-2.857-1.196-.708-2.636-1.062-4.321-1.062-1.66 0-3.1.354-4.321 1.062-1.196.708-2.185 1.66-2.966 2.857-.806 1.196-1.404 2.587-1.795 4.174-.366 1.587-.549 3.247-.549 4.981zm34.641-.769c0-2.881.415-5.542 1.245-7.984.831-2.465 2.039-4.602 3.626-6.408 1.562-1.807 3.479-3.223 5.749-4.248 2.271-1.026 4.859-1.538 7.764-1.538s5.493.512 7.764 1.538c2.295 1.025 4.236 2.441 5.823 4.248 1.562 1.806 2.758 3.943 3.588 6.408.831 2.442 1.246 5.103 1.246 7.984v.769c0 2.905-.415 5.578-1.246 8.02-.83 2.441-2.026 4.565-3.588 6.372-1.563 1.807-3.492 3.223-5.787 4.248-2.27 1.025-4.846 1.538-7.727 1.538-2.905 0-5.505-.513-7.8-1.538s-4.224-2.441-5.786-4.248c-1.587-1.807-2.795-3.931-3.626-6.372-.83-2.442-1.245-5.115-1.245-8.02zm8.753.769c0 1.782.183 3.467.549 5.054.391 1.586.989 2.978 1.795 4.174.781 1.197 1.782 2.149 3.002 2.857 1.221.683 2.674 1.025 4.358 1.025 1.636 0 3.064-.342 4.285-1.025 1.221-.708 2.222-1.66 3.003-2.857.781-1.196 1.355-2.588 1.721-4.174.391-1.587.586-3.272.586-5.054v-.769c0-1.734-.195-3.394-.586-4.981-.39-1.587-.964-2.978-1.721-4.174-.806-1.197-1.819-2.149-3.04-2.857-1.196-.708-2.636-1.062-4.321-1.062-1.66 0-3.1.354-4.321 1.062-1.196.708-2.185 1.66-2.966 2.857-.806 1.196-1.404 2.587-1.795 4.174-.366 1.587-.549 3.247-.549 4.981zm113.814 105.2h-33.838v-7.325h33.838zm0 15.527h-33.838v-7.288h33.838z" fill="#68a3e8"/><path d="m793.545 265.32c0-3.442.268-6.689.805-9.741.538-3.076 1.258-5.92 2.161-8.533.928-2.563 1.99-4.919 3.186-7.067 1.221-2.149 2.503-4.053 3.845-5.713 1.319-1.661 2.674-3.064 4.065-4.212 1.392-1.172 2.735-2.075 4.029-2.71l1.757 5.091c-.781.586-1.562 1.294-2.343 2.124-.782.83-1.551 1.77-2.308 2.819-1.049 1.49-2.038 3.235-2.966 5.237-.903 2.002-1.684 4.187-2.344 6.555-.61 2.222-1.098 4.676-1.464 7.361-.342 2.686-.513 5.591-.513 8.716v.769c0 3.052.171 5.896.513 8.533.341 2.612.744 4.834 1.208 6.665.586 2.197 1.257 4.236 2.014 6.116.781 1.879 1.599 3.54 2.454 4.98.903 1.465 1.843 2.759 2.82 3.882.976 1.123 1.953 2.063 2.929 2.82l-1.757 4.907c-1.294-.635-2.637-1.538-4.029-2.71-1.391-1.147-2.759-2.551-4.101-4.211-1.343-1.661-2.625-3.565-3.846-5.713-1.196-2.124-2.246-4.493-3.149-7.105-.903-2.588-1.623-5.395-2.161-8.423-.537-3.051-.805-6.323-.805-9.814zm62.363.623c0 3.418-.28 6.64-.842 9.668-.537 3.027-1.269 5.835-2.197 8.423-.928 2.612-2.002 4.992-3.223 7.141-1.221 2.148-2.514 4.053-3.882 5.713-1.367 1.709-2.758 3.149-4.174 4.321s-2.784 2.075-4.102 2.71l-1.721-4.907c.928-.684 1.855-1.551 2.783-2.6.928-1.05 1.831-2.259 2.71-3.626.928-1.514 1.794-3.235 2.6-5.163.83-1.905 1.526-4.017 2.087-6.336.538-2.148.953-4.492 1.246-7.031.317-2.539.476-5.286.476-8.24v-.769c0-3.052-.171-5.859-.513-8.423-.342-2.563-.769-4.858-1.282-6.885-.683-2.636-1.513-5.004-2.49-7.104-.952-2.1-1.953-3.918-3.003-5.457-.732-1.098-1.501-2.075-2.307-2.929-.781-.879-1.55-1.612-2.307-2.198l1.721-4.907c1.318.635 2.686 1.551 4.102 2.747 1.44 1.172 2.832 2.588 4.174 4.248 1.392 1.709 2.698 3.638 3.919 5.786 1.221 2.124 2.283 4.492 3.186 7.104.903 2.588 1.636 5.384 2.197 8.387.562 2.978.842 6.213.842 9.704zm90.011 34.35c-2.393-.048-4.468-.598-6.226-1.647-1.757-1.026-3.198-2.369-4.321-4.029-1.147-1.636-1.99-3.467-2.527-5.493-.537-2.002-.805-3.967-.805-5.896v-6.079c0-3.345-.794-5.762-2.381-7.251-1.562-1.489-3.967-2.234-7.214-2.234v-6.482c3.247 0 5.652-.744 7.214-2.234 1.587-1.489 2.381-3.93 2.381-7.324v-6.079c0-2.026.28-4.114.842-6.262.561-2.149 1.452-4.041 2.673-5.677 1.05-1.489 2.429-2.697 4.138-3.625 1.734-.952 3.809-1.44 6.226-1.465l1.025 5.09c-1.587 0-2.832.367-3.735 1.099-.903.708-1.575 1.636-2.014 2.783-.44 1.148-.708 2.429-.806 3.845-.073 1.417-.11 2.82-.11 4.212v6.079c0 2.905-.708 5.481-2.124 7.727-1.391 2.222-3.552 3.919-6.482 5.09 2.954 1.148 5.115 2.832 6.482 5.054 1.392 2.197 2.1 4.749 2.124 7.654v6.079c0 1.392.086 2.795.257 4.211.195 1.416.549 2.698 1.062 3.846.512 1.147 1.196 2.075 2.05 2.783.855.732 1.954 1.099 3.296 1.099zm-333.091 99.707v-39.624h7.91l.549 5.64c.537-.757 1.123-1.453 1.758-2.088.659-.659 1.355-1.245 2.088-1.758 1.171-.805 2.453-1.428 3.845-1.867 1.391-.44 2.856-.659 4.394-.659 2.027 0 3.882.293 5.567.878 1.684.586 3.125 1.514 4.321 2.784 1.196 1.269 2.124 2.893 2.783 4.87.659 1.953.989 4.322.989 7.105v24.719h-8.753v-24.573c0-1.635-.183-3.003-.549-4.101-.366-1.099-.903-1.978-1.611-2.637s-1.563-1.123-2.564-1.392c-1.001-.293-2.148-.439-3.442-.439-1.074 0-2.075.146-3.003.439-.928.269-1.77.66-2.527 1.172-.586.391-1.135.867-1.648 1.428-.512.562-.964 1.172-1.355 1.832v28.271zm68.699 0c-.269-.488-.488-1.074-.659-1.758-.147-.708-.281-1.44-.403-2.197-.61.635-1.306 1.245-2.087 1.831-.757.562-1.612 1.05-2.564 1.465-.952.439-1.977.781-3.076 1.025s-2.283.366-3.552.366c-2.051 0-3.931-.293-5.64-.878-1.685-.611-3.125-1.441-4.321-2.491-1.221-1.025-2.173-2.258-2.857-3.698-.659-1.465-.989-3.04-.989-4.725 0-2.172.428-4.089 1.282-5.749.879-1.685 2.149-3.076 3.809-4.175 1.538-1.025 3.43-1.807 5.676-2.344 2.271-.537 4.834-.805 7.691-.805h6.372v-2.674c0-1.025-.184-1.953-.55-2.783-.342-.83-.842-1.55-1.501-2.16-.708-.611-1.575-1.075-2.6-1.392-1.001-.342-2.161-.513-3.479-.513-1.197 0-2.246.147-3.15.44-.879.293-1.611.695-2.197 1.208-.586.464-1.025 1.038-1.318 1.721-.269.66-.403 1.368-.403 2.124h-8.789c.024-1.587.403-3.112 1.135-4.577s1.807-2.759 3.223-3.882c1.367-1.148 3.051-2.051 5.053-2.71 2.027-.684 4.334-1.025 6.922-1.025 2.319 0 4.48.293 6.482.878 2.026.562 3.772 1.404 5.237 2.527 1.464 1.123 2.612 2.552 3.442 4.285.83 1.709 1.245 3.687 1.245 5.933v17.614c0 1.783.122 3.394.366 4.834.269 1.416.647 2.637 1.135 3.662v.623zm-10.657-6.299c1.148 0 2.21-.146 3.186-.439 1.001-.293 1.905-.672 2.71-1.136.806-.463 1.502-.988 2.088-1.574s1.037-1.197 1.355-1.831v-7.325h-5.64c-1.904 0-3.552.184-4.944.55-1.392.342-2.502.842-3.332 1.501-.733.562-1.282 1.233-1.648 2.014-.342.782-.513 1.661-.513 2.637 0 .806.146 1.563.439 2.271.293.683.721 1.269 1.282 1.757.562.489 1.257.879 2.088 1.172.83.269 1.806.403 2.929.403zm33.726-33.325.257 4.358c.756-1.587 1.794-2.832 3.112-3.735 1.343-.904 2.954-1.355 4.834-1.355.977 0 1.856.109 2.637.329s1.453.562 2.014 1.026c.44.341.83.756 1.172 1.245.342.464.635 1.001.879 1.611.342-.562.732-1.086 1.172-1.575.439-.488.915-.903 1.428-1.245.659-.439 1.392-.781 2.197-1.025.83-.244 1.734-.366 2.71-.366 1.27 0 2.43.219 3.479.659 1.075.415 2.002 1.062 2.784 1.941.781.927 1.379 2.136 1.794 3.625.439 1.465.659 3.235.659 5.31v28.821h-8.057v-28.894c0-.781-.085-1.44-.256-1.978-.171-.561-.415-1.013-.732-1.355-.318-.317-.708-.549-1.172-.695-.44-.147-.928-.22-1.465-.22-.562 0-1.05.073-1.465.22-.415.146-.781.354-1.098.622-.293.244-.538.537-.733.879-.195.317-.342.684-.439 1.099v.366.549 29.407h-7.911v-28.931c0-.781-.085-1.44-.256-1.977-.146-.562-.378-1.001-.696-1.319-.317-.317-.695-.549-1.135-.695-.415-.147-.891-.22-1.428-.22-.586 0-1.111.085-1.575.256-.439.147-.818.379-1.135.696-.244.22-.464.476-.659.769-.171.293-.33.623-.476.989v30.432h-8.057v-39.624zm56.907 40.356c-2.929 0-5.615-.488-8.056-1.464-2.417-.977-4.493-2.332-6.226-4.065-1.733-1.709-3.076-3.724-4.028-6.043-.928-2.344-1.392-4.87-1.392-7.58v-1.502c0-3.1.488-5.908 1.465-8.423.977-2.514 2.319-4.663 4.028-6.445s3.687-3.149 5.933-4.102c2.27-.976 4.687-1.464 7.251-1.464 2.856 0 5.383.488 7.581 1.464 2.197.953 4.04 2.283 5.529 3.992 1.49 1.733 2.613 3.796 3.369 6.189.757 2.393 1.136 5.005 1.136 7.837v3.772h-27.466v.183c.268 1.733.683 3.186 1.245 4.358s1.331 2.222 2.307 3.149c.977.977 2.124 1.734 3.442 2.271 1.343.537 2.808.806 4.395.806 2.173 0 4.199-.415 6.079-1.246 1.88-.854 3.43-2.063 4.651-3.625l4.688 4.541c-1.319 1.904-3.345 3.613-6.08 5.127-2.71 1.514-5.993 2.27-9.851 2.27zm-1.062-33.984c-1.245 0-2.404.232-3.479.696-1.049.439-1.989 1.074-2.82 1.904-.83.855-1.525 1.88-2.087 3.076-.561 1.197-.976 2.552-1.245 4.065h18.64v-.586c0-1.147-.207-2.282-.622-3.405-.415-1.148-1.001-2.149-1.758-3.003-.733-.83-1.66-1.49-2.783-1.978-1.099-.513-2.381-.769-3.846-.769zm-488.429 267.419c1.318 0 2.405-.367 3.259-1.099.879-.708 1.575-1.636 2.087-2.783.513-1.148.867-2.43 1.062-3.846.22-1.416.33-2.819.33-4.211v-6.079c0-1.611.208-3.125.623-4.541.439-1.441 1.11-2.734 2.014-3.882.659-.903 1.452-1.709 2.38-2.417.952-.732 2.039-1.355 3.259-1.868-1.074-.439-2.05-.964-2.929-1.574-.855-.635-1.612-1.331-2.271-2.088-1.05-1.22-1.831-2.6-2.344-4.138-.488-1.562-.732-3.235-.732-5.017v-6.079c0-1.392-.061-2.795-.183-4.212-.098-1.416-.354-2.697-.769-3.845-.44-1.147-1.111-2.075-2.014-2.783-.904-.732-2.149-1.099-3.736-1.099l1.026-5.09c2.514.025 4.638.549 6.372 1.575 1.758 1.001 3.186 2.331 4.284 3.992 1.148 1.635 1.966 3.479 2.454 5.529.513 2.027.769 4.004.769 5.933v6.079c0 1.416.122 2.661.366 3.735.269 1.075.684 1.99 1.245 2.747.733 1.05 1.77 1.831 3.113 2.344 1.343.488 2.967.732 4.871.732v6.482c-1.929 0-3.552.256-4.871.769-1.318.488-2.356 1.282-3.113 2.38-.537.733-.939 1.636-1.208 2.71-.269 1.05-.403 2.259-.403 3.626v6.079c0 1.929-.281 3.906-.842 5.933-.562 2.026-1.392 3.845-2.49 5.456-1.123 1.66-2.564 3.015-4.322 4.065-1.757 1.05-3.833 1.587-6.225 1.611z" fill="#dbba76"/><path d="m942.403 355.835h-6.958l-9.411-9.998h9.924zm27.794-9.155 6.591 22.815 7.288-22.815h10.95v53.32h-8.277v-18.091l.513-23.804-8.203 25.452h-4.578l-7.434-24.573.476 22.925v18.091h-8.239v-53.32zm58.483 53.32c-.27-.488-.49-1.074-.66-1.758-.15-.708-.28-1.44-.4-2.197-.61.635-1.31 1.245-2.09 1.831-.76.562-1.61 1.05-2.56 1.465-.96.439-1.98.781-3.08 1.025s-2.28.366-3.55.366c-2.05 0-3.93-.293-5.64-.878-1.69-.611-3.13-1.441-4.32-2.491-1.22-1.025-2.18-2.258-2.86-3.698-.66-1.465-.99-3.04-.99-4.725 0-2.172.43-4.089 1.28-5.749.88-1.685 2.15-3.076 3.81-4.175 1.54-1.025 3.43-1.807 5.68-2.344 2.27-.537 4.83-.805 7.69-.805h6.37v-2.674c0-1.025-.18-1.953-.55-2.783-.34-.83-.84-1.55-1.5-2.16-.71-.611-1.58-1.075-2.6-1.392-1-.342-2.16-.513-3.48-.513-1.2 0-2.25.147-3.15.44-.88.293-1.61.695-2.2 1.208-.58.464-1.02 1.038-1.31 1.721-.27.66-.41 1.368-.41 2.124h-8.79c.03-1.587.41-3.112 1.14-4.577s1.81-2.759 3.22-3.882c1.37-1.148 3.05-2.051 5.05-2.71 2.03-.684 4.34-1.025 6.93-1.025 2.32 0 4.48.293 6.48.878 2.02.562 3.77 1.404 5.24 2.527 1.46 1.123 2.61 2.552 3.44 4.285.83 1.709 1.24 3.687 1.24 5.933v17.614c0 1.783.12 3.394.37 4.834.27 1.416.65 2.637 1.13 3.662v.623zm-10.66-6.299c1.15 0 2.21-.146 3.19-.439 1-.293 1.9-.672 2.71-1.136.8-.463 1.5-.988 2.09-1.574.58-.586 1.03-1.197 1.35-1.831v-7.325h-5.64c-1.9 0-3.55.184-4.94.55-1.39.342-2.51.842-3.34 1.501-.73.562-1.28 1.233-1.64 2.014-.35.782-.52 1.661-.52 2.637 0 .806.15 1.563.44 2.271.3.683.72 1.269 1.28 1.757.57.489 1.26.879 2.09 1.172.83.269 1.81.403 2.93.403zm56.14-34.057c1.42 0 2.78.097 4.1.293 1.34.195 2.39.427 3.15.695l-1.24 8.643c-1.35-.293-2.68-.513-4-.659-1.29-.147-2.58-.22-3.88-.22-1.46 0-2.78.146-3.95.439s-2.21.745-3.12 1.355c-.97.586-1.8 1.331-2.49 2.234-.68.904-1.25 1.941-1.72 3.113v24.463h-8.75v-39.624h8.2l.37 5.493.04.916c1.61-2.222 3.54-3.968 5.78-5.237 2.27-1.27 4.78-1.904 7.51-1.904zm29.62 23.107-4.76 4.505v12.744h-8.79v-56.25h8.79v33.105l3.63-4.028 11.83-12.451h10.54l-15.41 16.516 17.65 23.108h-10.84zm28.6-2.856c0-3.003.36-5.737 1.07-8.203.73-2.49 1.78-4.627 3.14-6.409 1.35-1.782 2.98-3.161 4.91-4.138 1.96-1.001 4.15-1.501 6.59-1.501 2.2 0 4.12.39 5.75 1.171 1.66.757 3.13 1.844 4.4 3.26v-20.325h8.75v56.25h-7.95l-.4-4.138c-1.27 1.562-2.78 2.771-4.54 3.625-1.76.83-3.78 1.245-6.08 1.245-2.42 0-4.59-.5-6.52-1.501-1.93-1.025-3.56-2.441-4.91-4.248-1.34-1.782-2.38-3.894-3.11-6.336-.73-2.465-1.1-5.126-1.1-7.983zm8.76.769c0 1.758.17 3.418.51 4.981.34 1.562.88 2.917 1.61 4.064.73 1.197 1.67 2.137 2.82 2.82 1.15.659 2.53.989 4.14.989 1.98 0 3.61-.427 4.9-1.282 1.3-.879 2.34-2.063 3.12-3.552v-17.029c-.78-1.465-1.82-2.624-3.12-3.479-1.26-.879-2.88-1.318-4.83-1.318-1.63 0-3.04.342-4.21 1.025-1.15.684-2.08 1.624-2.78 2.82-.76 1.196-1.31 2.588-1.65 4.175-.34 1.562-.51 3.235-.51 5.017zm34.2-.842c0-2.881.41-5.542 1.24-7.984.83-2.465 2.04-4.602 3.63-6.408 1.56-1.807 3.48-3.223 5.75-4.248 2.27-1.026 4.86-1.538 7.76-1.538 2.91 0 5.49.512 7.77 1.538 2.29 1.025 4.23 2.441 5.82 4.248 1.56 1.806 2.76 3.943 3.59 6.408.83 2.442 1.24 5.103 1.24 7.984v.769c0 2.905-.41 5.578-1.24 8.02-.83 2.441-2.03 4.565-3.59 6.372s-3.49 3.223-5.79 4.248c-2.27 1.025-4.84 1.538-7.73 1.538-2.9 0-5.5-.513-7.8-1.538-2.29-1.025-4.22-2.441-5.78-4.248-1.59-1.807-2.8-3.931-3.63-6.372-.83-2.442-1.24-5.115-1.24-8.02zm8.75.769c0 1.782.18 3.467.55 5.054.39 1.586.99 2.978 1.79 4.174.79 1.197 1.79 2.149 3.01 2.857 1.22.683 2.67 1.025 4.35 1.025 1.64 0 3.07-.342 4.29-1.025 1.22-.708 2.22-1.66 3-2.857.78-1.196 1.36-2.588 1.72-4.174.39-1.587.59-3.272.59-5.054v-.769c0-1.734-.2-3.394-.59-4.981s-.96-2.978-1.72-4.174c-.8-1.197-1.82-2.149-3.04-2.857-1.19-.708-2.63-1.062-4.32-1.062-1.66 0-3.1.354-4.32 1.062-1.2.708-2.18 1.66-2.97 2.857-.8 1.196-1.4 2.587-1.79 4.174-.37 1.587-.55 3.247-.55 4.981zm39.55 19.409-7.65-39.624h7.91l3.66 24.28.62 4.577.81-4.577 5.16-24.28h5.75l5.16 24.207.84 4.797.7-4.834 3.55-24.17h7.95l-7.65 39.624h-7.44l-5.13-22.485-.91-4.908-.88 4.908-5.02 22.485zm40.1 0v-39.624h7.91l.55 5.64c.53-.757 1.12-1.453 1.75-2.088.66-.659 1.36-1.245 2.09-1.758 1.17-.805 2.46-1.428 3.85-1.867 1.39-.44 2.85-.659 4.39-.659 2.03 0 3.88.293 5.57.878 1.68.586 3.12 1.514 4.32 2.784 1.2 1.269 2.12 2.893 2.78 4.87.66 1.953.99 4.322.99 7.105v24.719h-8.75v-24.573c0-1.635-.18-3.003-.55-4.101-.37-1.099-.9-1.978-1.61-2.637s-1.56-1.123-2.57-1.392c-1-.293-2.14-.439-3.44-.439-1.07 0-2.07.146-3 .439-.93.269-1.77.66-2.53 1.172-.58.391-1.13.867-1.65 1.428-.51.562-.96 1.172-1.35 1.832v28.271zm69.21-44.165h-6.96l-9.41-9.998h9.92zm-650.91 113h-6.958l-9.412-9.998h9.924zm51.816 44.165h-8.606v-23.767h-17.944v23.767h-8.569v-53.32h8.569v22.302h17.944v-22.302h8.606zm27.647.732c-2.929 0-5.615-.488-8.056-1.464-2.417-.977-4.493-2.332-6.226-4.065-1.733-1.709-3.076-3.724-4.028-6.043-.928-2.344-1.392-4.87-1.392-7.58v-1.502c0-3.1.488-5.908 1.465-8.423.977-2.514 2.319-4.663 4.028-6.445s3.687-3.149 5.933-4.102c2.27-.976 4.687-1.464 7.251-1.464 2.856 0 5.383.488 7.581 1.464 2.197.953 4.04 2.283 5.529 3.992 1.49 1.733 2.613 3.796 3.369 6.189.757 2.393 1.136 5.005 1.136 7.837v3.772h-27.466v.183c.268 1.733.683 3.186 1.245 4.358s1.331 2.222 2.307 3.149c.977.977 2.124 1.734 3.442 2.271 1.343.537 2.808.806 4.395.806 2.173 0 4.199-.415 6.079-1.246 1.88-.854 3.43-2.063 4.651-3.625l4.688 4.541c-1.319 1.904-3.345 3.613-6.08 5.127-2.71 1.514-5.993 2.27-9.851 2.27zm-1.062-33.984c-1.245 0-2.404.232-3.479.696-1.049.439-1.989 1.074-2.82 1.904-.83.855-1.525 1.88-2.087 3.076-.561 1.197-.976 2.552-1.245 4.065h18.64v-.586c0-1.147-.207-2.282-.622-3.405-.415-1.148-1.001-2.149-1.758-3.003-.733-.83-1.66-1.49-2.783-1.978-1.099-.513-2.381-.769-3.846-.769zm27.647-22.998h21.35v48.999h12.012v7.251h-33.362v-7.251h12.525v-41.711h-12.525zm43.394 0h21.35v48.999h12.012v7.251h-33.362v-7.251h12.525v-41.711h-12.525zm40.098 36.072c0-2.881.415-5.542 1.245-7.984.83-2.465 2.039-4.602 3.626-6.408 1.562-1.807 3.479-3.223 5.749-4.248 2.271-1.026 4.859-1.538 7.764-1.538s5.493.512 7.764 1.538c2.295 1.025 4.236 2.441 5.822 4.248 1.563 1.806 2.759 3.943 3.589 6.408.83 2.442 1.245 5.103 1.245 7.984v.769c0 2.905-.415 5.578-1.245 8.02-.83 2.441-2.026 4.565-3.589 6.372-1.562 1.807-3.491 3.223-5.786 4.248-2.27 1.025-4.846 1.538-7.727 1.538-2.905 0-5.505-.513-7.8-1.538s-4.224-2.441-5.786-4.248c-1.587-1.807-2.796-3.931-3.626-6.372-.83-2.442-1.245-5.115-1.245-8.02zm8.753.769c0 1.782.183 3.467.549 5.054.391 1.586.989 2.978 1.794 4.174.782 1.197 1.783 2.149 3.003 2.857 1.221.683 2.674 1.025 4.358 1.025 1.636 0 3.064-.342 4.285-1.025 1.221-.708 2.222-1.66 3.003-2.857.781-1.196 1.355-2.588 1.721-4.174.391-1.587.586-3.272.586-5.054v-.769c0-1.734-.195-3.394-.586-4.981s-.964-2.978-1.721-4.174c-.806-1.197-1.819-2.149-3.04-2.857-1.196-.708-2.636-1.062-4.321-1.062-1.66 0-3.101.354-4.321 1.062-1.197.708-2.185 1.66-2.967 2.857-.805 1.196-1.403 2.587-1.794 4.174-.366 1.587-.549 3.247-.549 4.981zm404.097 1.355h-8.24l-.37-35.266h8.94zm-9.3 13.659c0-1.416.45-2.6 1.35-3.552s2.19-1.428 3.85-1.428c1.63 0 2.91.476 3.84 1.428s1.39 2.136 1.39 3.552c0 1.392-.46 2.552-1.39 3.479-.93.928-2.21 1.392-3.84 1.392-1.66 0-2.95-.464-3.85-1.392-.9-.927-1.35-2.087-1.35-3.479zm57.82-39.77h-6.96l-9.41-9.998h9.92z" fill="#96b973"/><path d="m1363.2 363.708c0-1.684.53-3.125 1.61-4.321 1.1-1.196 2.67-1.794 4.72-1.794 2 0 3.57.598 4.69 1.794 1.12 1.172 1.68 2.613 1.68 4.321 0 1.709-.57 3.138-1.72 4.285-1.12 1.148-2.67 1.721-4.65 1.721-2 0-3.56-.573-4.69-1.721-1.09-1.172-1.64-2.6-1.64-4.285zm10.29 35.157c0 2.636-.65 5.31-1.94 8.02-1.27 2.734-2.96 5.041-5.06 6.921l-4.91-2.6c1.05-1.733 1.86-3.564 2.42-5.493.59-1.929.88-4.102.88-6.519v-7.727h8.61zm-10.29 77.843c0-1.684.53-3.125 1.61-4.321 1.1-1.196 2.67-1.794 4.72-1.794 2 0 3.57.598 4.69 1.794 1.12 1.172 1.68 2.613 1.68 4.321 0 1.709-.57 3.138-1.72 4.285-1.12 1.148-2.67 1.721-4.65 1.721-2 0-3.56-.573-4.69-1.721-1.09-1.172-1.64-2.6-1.64-4.285zm10.29 35.157c0 2.636-.65 5.31-1.94 8.02-1.27 2.734-2.96 5.041-5.06 6.921l-4.91-2.6c1.05-1.733 1.86-3.564 2.42-5.493.59-1.929.88-4.102.88-6.519v-7.727h8.61z" fill="#b3b3b3"/><path d="m1046.77 513v-39.624h7.91l.55 5.64c.53-.757 1.12-1.453 1.75-2.088.66-.659 1.36-1.245 2.09-1.758 1.17-.805 2.46-1.428 3.85-1.867 1.39-.44 2.85-.659 4.39-.659 2.03 0 3.88.293 5.57.878 1.68.586 3.12 1.514 4.32 2.784 1.2 1.269 2.12 2.893 2.78 4.87.66 1.953.99 4.322.99 7.105v24.719h-8.75v-24.573c0-1.635-.18-3.003-.55-4.101-.37-1.099-.9-1.978-1.61-2.637s-1.56-1.123-2.57-1.392c-1-.293-2.14-.439-3.44-.439-1.07 0-2.07.146-3 .439-.93.269-1.77.66-2.53 1.172-.58.391-1.13.867-1.65 1.428-.51.562-.96 1.172-1.35 1.832v28.271zm68.7 0c-.27-.488-.49-1.074-.66-1.758-.15-.708-.28-1.44-.41-2.197-.61.635-1.3 1.245-2.08 1.831-.76.562-1.61 1.05-2.57 1.465-.95.439-1.97.781-3.07 1.025s-2.29.366-3.55.366c-2.06 0-3.94-.293-5.64-.878-1.69-.611-3.13-1.441-4.33-2.491-1.22-1.025-2.17-2.258-2.85-3.698-.66-1.465-.99-3.04-.99-4.725 0-2.172.43-4.089 1.28-5.749.88-1.685 2.15-3.076 3.81-4.175 1.54-1.025 3.43-1.807 5.68-2.344 2.27-.537 4.83-.805 7.69-.805h6.37v-2.674c0-1.025-.19-1.953-.55-2.783-.34-.83-.84-1.55-1.5-2.16-.71-.611-1.58-1.075-2.6-1.392-1-.342-2.16-.513-3.48-.513-1.2 0-2.25.147-3.15.44-.88.293-1.61.695-2.2 1.208-.58.464-1.02 1.038-1.32 1.721-.27.66-.4 1.368-.4 2.124h-8.79c.03-1.587.4-3.112 1.14-4.577.73-1.465 1.8-2.759 3.22-3.882 1.37-1.148 3.05-2.051 5.05-2.71 2.03-.684 4.34-1.025 6.92-1.025 2.32 0 4.48.293 6.49.878 2.02.562 3.77 1.404 5.23 2.527 1.47 1.123 2.62 2.552 3.45 4.285.83 1.709 1.24 3.687 1.24 5.933v17.614c0 1.783.12 3.394.37 4.834.27 1.416.64 2.637 1.13 3.662v.623zm-10.66-6.299c1.15 0 2.21-.146 3.19-.439 1-.293 1.9-.672 2.71-1.136.8-.463 1.5-.988 2.08-1.574.59-.586 1.04-1.197 1.36-1.831v-7.325h-5.64c-1.91 0-3.55.184-4.95.55-1.39.342-2.5.842-3.33 1.501-.73.562-1.28 1.233-1.65 2.014-.34.782-.51 1.661-.51 2.637 0 .806.15 1.563.44 2.271.29.683.72 1.269 1.28 1.757.56.489 1.26.879 2.09 1.172.83.269 1.81.403 2.93.403zm33.73-33.325.25 4.358c.76-1.587 1.8-2.832 3.11-3.735 1.35-.904 2.96-1.355 4.84-1.355.98 0 1.85.109 2.64.329.78.22 1.45.562 2.01 1.026.44.341.83.756 1.17 1.245.34.464.64 1.001.88 1.611.34-.562.73-1.086 1.17-1.575.44-.488.92-.903 1.43-1.245.66-.439 1.39-.781 2.2-1.025.83-.244 1.73-.366 2.71-.366 1.27 0 2.43.219 3.48.659 1.07.415 2 1.062 2.78 1.941.78.927 1.38 2.136 1.79 3.625.44 1.465.66 3.235.66 5.31v28.821h-8.05v-28.894c0-.781-.09-1.44-.26-1.978-.17-.561-.41-1.013-.73-1.355-.32-.317-.71-.549-1.17-.695-.44-.147-.93-.22-1.47-.22-.56 0-1.05.073-1.46.22-.42.146-.78.354-1.1.622-.3.244-.54.537-.73.879-.2.317-.35.684-.44 1.099v.366.549 29.407h-7.91v-28.931c0-.781-.09-1.44-.26-1.977-.15-.562-.38-1.001-.7-1.319-.31-.317-.69-.549-1.13-.695-.42-.147-.89-.22-1.43-.22-.59 0-1.11.085-1.57.256-.44.147-.82.379-1.14.696-.24.22-.46.476-.66.769-.17.293-.33.623-.47.989v30.432h-8.06v-39.624zm56.9 40.356c-2.93 0-5.61-.488-8.05-1.464-2.42-.977-4.5-2.332-6.23-4.065-1.73-1.709-3.08-3.724-4.03-6.043-.93-2.344-1.39-4.87-1.39-7.58v-1.502c0-3.1.49-5.908 1.47-8.423.97-2.514 2.31-4.663 4.02-6.445s3.69-3.149 5.94-4.102c2.27-.976 4.68-1.464 7.25-1.464 2.85 0 5.38.488 7.58 1.464 2.2.953 4.04 2.283 5.53 3.992 1.49 1.733 2.61 3.796 3.37 6.189.75 2.393 1.13 5.005 1.13 7.837v3.772h-27.46v.183c.26 1.733.68 3.186 1.24 4.358s1.33 2.222 2.31 3.149c.98.977 2.12 1.734 3.44 2.271 1.34.537 2.81.806 4.4.806 2.17 0 4.19-.415 6.07-1.246 1.88-.854 3.43-2.063 4.66-3.625l4.68 4.541c-1.32 1.904-3.34 3.613-6.08 5.127-2.71 1.514-5.99 2.27-9.85 2.27zm-1.06-33.984c-1.24 0-2.4.232-3.48.696-1.05.439-1.99 1.074-2.82 1.904-.83.855-1.52 1.88-2.09 3.076-.56 1.197-.97 2.552-1.24 4.065h18.64v-.586c0-1.147-.21-2.282-.62-3.405-.42-1.148-1-2.149-1.76-3.003-.73-.83-1.66-1.49-2.78-1.978-1.1-.513-2.38-.769-3.85-.769z" fill="#ffa629"/><path d="m149.433 287h-8.825v-42.48l-13.66 5.017v-7.727l21.936-8.13h.549zm10.254 113h-35.779v-6.079l17.359-18.897c1.44-1.586 2.649-3.003 3.625-4.248.977-1.269 1.77-2.429 2.381-3.479.586-1.049 1.001-2.026 1.245-2.929.268-.928.403-1.856.403-2.784 0-1.245-.183-2.38-.55-3.405-.366-1.026-.903-1.905-1.611-2.637s-1.562-1.306-2.563-1.721c-.977-.415-2.076-.623-3.296-.623-1.563 0-2.918.22-4.065.659-1.148.44-2.1 1.062-2.857 1.868-.781.855-1.367 1.892-1.758 3.113-.39 1.196-.586 2.563-.586 4.101h-8.789c0-2.319.428-4.504 1.282-6.555.855-2.075 2.075-3.882 3.662-5.42 1.563-1.538 3.467-2.758 5.713-3.662 2.271-.903 4.798-1.355 7.581-1.355 2.612 0 4.944.379 6.994 1.136 2.076.756 3.821 1.806 5.237 3.149 1.392 1.343 2.454 2.954 3.186 4.834.733 1.855 1.099 3.906 1.099 6.152 0 1.685-.281 3.321-.842 4.907-.538 1.563-1.282 3.113-2.234 4.651-.977 1.538-2.137 3.089-3.479 4.651-1.319 1.563-2.759 3.174-4.322 4.834l-11.865 12.671h24.829zm-24.682 82.385h5.236c1.563 0 2.93-.208 4.102-.623 1.172-.439 2.136-1.05 2.893-1.831.708-.683 1.245-1.526 1.611-2.527.391-1.025.586-2.124.586-3.296 0-1.269-.183-2.404-.549-3.405-.342-1.001-.854-1.856-1.538-2.564-.684-.659-1.55-1.172-2.6-1.538-1.026-.366-2.21-.549-3.552-.549-1.197 0-2.308.183-3.333.549-1.001.342-1.868.842-2.6 1.502-.757.659-1.355 1.452-1.794 2.38-.415.928-.623 1.965-.623 3.113h-8.752c0-2.124.427-4.077 1.281-5.86.855-1.782 2.039-3.332 3.553-4.651 1.513-1.293 3.295-2.307 5.346-3.039 2.075-.733 4.346-1.099 6.812-1.099 2.514 0 4.822.33 6.921.989 2.124.635 3.931 1.587 5.42 2.856 1.514 1.294 2.686 2.881 3.516 4.761s1.245 4.065 1.245 6.555c0 1.099-.171 2.198-.513 3.296-.317 1.099-.806 2.161-1.465 3.186-.659 1.001-1.489 1.941-2.49 2.82s-2.173 1.624-3.516 2.234c1.587.537 2.93 1.245 4.029 2.124 1.123.855 2.038 1.819 2.746 2.893.708 1.099 1.221 2.283 1.538 3.552.318 1.245.476 2.539.476 3.882 0 2.49-.463 4.712-1.391 6.665-.903 1.929-2.149 3.552-3.735 4.871-1.612 1.343-3.516 2.368-5.713 3.076-2.173.684-4.529 1.025-7.068 1.025-2.295 0-4.505-.317-6.629-.952-2.124-.634-3.991-1.587-5.603-2.856-1.611-1.27-2.905-2.832-3.882-4.688-.952-1.88-1.428-4.065-1.428-6.555h8.753c0 1.172.207 2.258.622 3.259.44.977 1.062 1.807 1.868 2.491.781.708 1.709 1.257 2.783 1.648 1.099.39 2.307.586 3.626.586 1.416 0 2.685-.184 3.808-.55 1.148-.39 2.112-.964 2.893-1.721.757-.708 1.331-1.587 1.721-2.637.415-1.074.623-2.295.623-3.662 0-1.538-.232-2.856-.696-3.955-.464-1.098-1.135-2.014-2.014-2.746-.879-.708-1.941-1.233-3.186-1.575-1.221-.366-2.588-.549-4.102-.549h-5.236zm19.519 124.609h6.701v7.104h-6.701v11.902h-8.753v-11.902h-23.071l-.22-5.383 23.035-36.035h9.009zm-23.108 0h14.355v-22.596l-1.025 1.905z" fill="#757575"/><g fill="#626c7e"><circle cx="101" cy="106" r="19"/><circle cx="173" cy="106" r="19"/><circle cx="243" cy="106" r="19"/></g></svg>