<svg width="1585" height="770" viewBox="0 0 1585 770" fill="none" xmlns="http://www.w3.org/2000/svg">
<rect x="9" y="9" width="1567" height="752" rx="50" fill="#2B3039" stroke="#626C7E" stroke-width="17" stroke-linecap="round"/>
<path d="M275.015 287V254.883H264.614V247.376H275.015V245.215C275.015 242.603 275.43 240.296 276.26 238.294C277.09 236.292 278.274 234.607 279.812 233.24C281.35 231.873 283.218 230.848 285.415 230.164C287.612 229.456 290.066 229.102 292.776 229.102C293.63 229.102 294.448 229.139 295.229 229.212C296.035 229.261 296.816 229.334 297.573 229.432C298.33 229.529 299.087 229.639 299.844 229.761C300.625 229.883 301.431 230.018 302.261 230.164L301.602 238.147C300.674 237.952 299.624 237.781 298.452 237.635C297.28 237.488 295.901 237.415 294.314 237.415C292.605 237.415 291.152 237.61 289.956 238.001C288.76 238.392 287.808 238.965 287.1 239.722C286.465 240.357 285.989 241.138 285.671 242.066C285.378 242.994 285.232 244.043 285.232 245.215V247.376H299.514V254.883H285.232V287H275.015ZM334.412 287L333.826 281.434C332.483 283.411 330.86 284.961 328.955 286.084C327.076 287.208 325.013 287.769 322.767 287.769C320.716 287.769 318.836 287.452 317.127 286.817C315.418 286.182 313.953 285.169 312.732 283.777C311.512 282.41 310.559 280.665 309.876 278.541C309.217 276.392 308.887 273.816 308.887 270.813V247.376H319.068V270.887C319.068 272.498 319.178 273.853 319.397 274.952C319.642 276.05 320.02 276.929 320.533 277.588C321.045 278.272 321.717 278.76 322.547 279.053C323.377 279.346 324.39 279.493 325.586 279.493C326.661 279.493 327.625 279.383 328.479 279.163C329.358 278.943 330.127 278.626 330.787 278.211C331.348 277.845 331.849 277.405 332.288 276.893C332.727 276.38 333.106 275.806 333.423 275.171V247.376H343.641V287H334.412ZM351.951 287V247.376H361.18L361.803 252.869C362.315 252.137 362.877 251.465 363.487 250.855C364.097 250.245 364.744 249.695 365.428 249.207C366.6 248.377 367.882 247.742 369.273 247.303C370.665 246.863 372.142 246.644 373.704 246.644C375.706 246.644 377.537 246.937 379.198 247.522C380.858 248.108 382.298 249.036 383.519 250.306C384.715 251.6 385.643 253.26 386.302 255.286C386.986 257.288 387.327 259.729 387.327 262.61V287H377.147V262.757C377.147 261.194 376.964 259.913 376.597 258.912C376.256 257.886 375.755 257.081 375.096 256.495C374.437 255.909 373.643 255.506 372.716 255.286C371.788 255.042 370.738 254.92 369.566 254.92C368.59 254.92 367.686 255.03 366.856 255.25C366.051 255.469 365.33 255.799 364.696 256.238C364.183 256.556 363.719 256.934 363.304 257.374C362.889 257.813 362.511 258.301 362.169 258.838V287H351.951ZM412.887 279.603C413.888 279.603 414.84 279.456 415.743 279.163C416.647 278.87 417.44 278.455 418.124 277.918C418.807 277.381 419.332 276.734 419.698 275.977C420.089 275.22 420.26 274.378 420.211 273.45H429.806C429.855 275.501 429.427 277.405 428.524 279.163C427.645 280.921 426.437 282.435 424.899 283.704C423.361 284.974 421.566 285.975 419.515 286.707C417.489 287.415 415.341 287.769 413.07 287.769C409.994 287.769 407.296 287.256 404.977 286.231C402.657 285.181 400.729 283.753 399.191 281.946C397.628 280.14 396.444 278.028 395.638 275.611C394.857 273.169 394.467 270.557 394.467 267.774V266.675C394.467 263.892 394.857 261.292 395.638 258.875C396.42 256.434 397.592 254.31 399.154 252.503C400.717 250.696 402.645 249.268 404.94 248.218C407.259 247.168 409.945 246.644 412.997 246.644C415.438 246.644 417.696 247.01 419.772 247.742C421.847 248.475 423.641 249.5 425.155 250.818C426.644 252.161 427.804 253.785 428.634 255.689C429.464 257.569 429.855 259.681 429.806 262.024H420.211C420.26 261.048 420.113 260.12 419.772 259.241C419.43 258.362 418.929 257.605 418.27 256.971C417.611 256.336 416.818 255.835 415.89 255.469C414.962 255.079 413.949 254.883 412.85 254.883C411.239 254.883 409.908 255.213 408.859 255.872C407.809 256.531 406.979 257.41 406.368 258.509C405.734 259.607 405.282 260.865 405.013 262.281C404.769 263.697 404.647 265.162 404.647 266.675V267.774C404.647 269.312 404.769 270.801 405.013 272.242C405.258 273.658 405.697 274.903 406.332 275.977C406.942 277.076 407.772 277.955 408.822 278.614C409.896 279.273 411.251 279.603 412.887 279.603ZM457.416 237.671V247.376H472.211V254.883H457.416V271.912C457.416 273.353 457.575 274.561 457.892 275.538C458.234 276.49 458.71 277.247 459.32 277.808C459.931 278.394 460.663 278.809 461.518 279.053C462.397 279.297 463.373 279.419 464.447 279.419C465.229 279.419 466.022 279.383 466.828 279.31C467.658 279.236 468.451 279.139 469.208 279.017C469.941 278.919 470.624 278.809 471.259 278.687C471.918 278.565 472.48 278.443 472.943 278.321L473.932 285.315C473.224 285.73 472.394 286.097 471.442 286.414C470.49 286.707 469.477 286.951 468.402 287.146C467.328 287.342 466.205 287.488 465.033 287.586C463.886 287.708 462.751 287.769 461.628 287.769C459.455 287.769 457.477 287.488 455.695 286.927C453.937 286.341 452.436 285.438 451.191 284.217C449.921 283.021 448.944 281.495 448.261 279.639C447.577 277.759 447.235 275.513 447.235 272.901V254.883H438.19V247.376H447.235V237.671H457.416ZM484.843 247.376H506.413V278.724H517.143V287H484.843V278.724H496.123V255.689H484.843V247.376ZM495.39 237.232C495.39 236.451 495.524 235.73 495.793 235.071C496.086 234.388 496.489 233.802 497.001 233.313C497.514 232.85 498.125 232.483 498.833 232.215C499.565 231.946 500.371 231.812 501.25 231.812C503.056 231.812 504.484 232.325 505.534 233.35C506.608 234.351 507.146 235.645 507.146 237.232C507.146 238.819 506.608 240.125 505.534 241.15C504.484 242.151 503.056 242.652 501.25 242.652C500.371 242.652 499.565 242.518 498.833 242.249C498.125 241.98 497.514 241.602 497.001 241.114C496.489 240.65 496.086 240.088 495.793 239.429C495.524 238.746 495.39 238.013 495.39 237.232ZM524.136 266.822C524.136 263.941 524.551 261.28 525.381 258.838C526.211 256.373 527.432 254.236 529.043 252.43C530.63 250.623 532.571 249.207 534.866 248.182C537.185 247.156 539.834 246.644 542.812 246.644C545.791 246.644 548.44 247.156 550.759 248.182C553.079 249.207 555.044 250.623 556.655 252.43C558.242 254.236 559.451 256.373 560.281 258.838C561.111 261.28 561.526 263.941 561.526 266.822V267.591C561.526 270.496 561.111 273.182 560.281 275.647C559.451 278.089 558.242 280.213 556.655 282.02C555.068 283.826 553.115 285.242 550.796 286.268C548.476 287.269 545.84 287.769 542.886 287.769C539.907 287.769 537.246 287.269 534.902 286.268C532.583 285.242 530.63 283.826 529.043 282.02C527.432 280.213 526.211 278.089 525.381 275.647C524.551 273.182 524.136 270.496 524.136 267.591V266.822ZM534.316 267.591C534.316 269.251 534.475 270.813 534.792 272.278C535.11 273.719 535.61 274.976 536.294 276.05C536.977 277.149 537.856 278.016 538.931 278.65C540.029 279.285 541.348 279.603 542.886 279.603C544.375 279.603 545.657 279.285 546.731 278.65C547.805 278.016 548.684 277.149 549.368 276.05C550.027 274.976 550.515 273.719 550.832 272.278C551.15 270.813 551.309 269.251 551.309 267.591V266.822C551.309 265.21 551.15 263.685 550.832 262.244C550.515 260.804 550.027 259.534 549.368 258.436C548.684 257.337 547.805 256.47 546.731 255.835C545.657 255.201 544.35 254.883 542.812 254.883C541.299 254.883 540.005 255.201 538.931 255.835C537.856 256.47 536.977 257.337 536.294 258.436C535.61 259.534 535.11 260.804 534.792 262.244C534.475 263.685 534.316 265.21 534.316 266.822V267.591ZM568.921 287V247.376H578.15L578.772 252.869C579.285 252.137 579.846 251.465 580.457 250.855C581.067 250.245 581.714 249.695 582.398 249.207C583.57 248.377 584.851 247.742 586.243 247.303C587.635 246.863 589.112 246.644 590.674 246.644C592.676 246.644 594.507 246.937 596.167 247.522C597.827 248.108 599.268 249.036 600.489 250.306C601.685 251.6 602.613 253.26 603.272 255.286C603.955 257.288 604.297 259.729 604.297 262.61V287H594.117V262.757C594.117 261.194 593.933 259.913 593.567 258.912C593.225 257.886 592.725 257.081 592.066 256.495C591.407 255.909 590.613 255.506 589.685 255.286C588.758 255.042 587.708 254.92 586.536 254.92C585.559 254.92 584.656 255.03 583.826 255.25C583.02 255.469 582.3 255.799 581.665 256.238C581.153 256.556 580.689 256.934 580.274 257.374C579.859 257.813 579.48 258.301 579.138 258.838V287H568.921ZM369.493 392.603C370.494 392.603 371.446 392.456 372.349 392.163C373.253 391.87 374.046 391.455 374.73 390.918C375.413 390.381 375.938 389.734 376.304 388.977C376.695 388.22 376.866 387.378 376.817 386.45H386.412C386.461 388.501 386.033 390.405 385.13 392.163C384.251 393.921 383.043 395.435 381.505 396.704C379.967 397.974 378.172 398.975 376.121 399.707C374.095 400.415 371.947 400.769 369.676 400.769C366.6 400.769 363.902 400.256 361.583 399.231C359.263 398.181 357.335 396.753 355.797 394.946C354.234 393.14 353.05 391.028 352.244 388.611C351.463 386.169 351.073 383.557 351.073 380.774V379.675C351.073 376.892 351.463 374.292 352.244 371.875C353.026 369.434 354.198 367.31 355.76 365.503C357.323 363.696 359.251 362.268 361.546 361.218C363.866 360.168 366.551 359.644 369.603 359.644C372.044 359.644 374.303 360.01 376.378 360.742C378.453 361.475 380.247 362.5 381.761 363.818C383.25 365.161 384.41 366.785 385.24 368.689C386.07 370.569 386.461 372.681 386.412 375.024H376.817C376.866 374.048 376.72 373.12 376.378 372.241C376.036 371.362 375.535 370.605 374.876 369.971C374.217 369.336 373.424 368.835 372.496 368.469C371.568 368.079 370.555 367.883 369.456 367.883C367.845 367.883 366.514 368.213 365.465 368.872C364.415 369.531 363.585 370.41 362.974 371.509C362.34 372.607 361.888 373.865 361.619 375.281C361.375 376.697 361.253 378.162 361.253 379.675V380.774C361.253 382.312 361.375 383.801 361.619 385.242C361.864 386.658 362.303 387.903 362.938 388.977C363.548 390.076 364.378 390.955 365.428 391.614C366.502 392.273 367.857 392.603 369.493 392.603ZM393.954 379.822C393.954 376.941 394.369 374.28 395.199 371.838C396.029 369.373 397.25 367.236 398.861 365.43C400.448 363.623 402.389 362.207 404.684 361.182C407.003 360.156 409.652 359.644 412.631 359.644C415.609 359.644 418.258 360.156 420.577 361.182C422.897 362.207 424.862 363.623 426.473 365.43C428.06 367.236 429.269 369.373 430.099 371.838C430.929 374.28 431.344 376.941 431.344 379.822V380.591C431.344 383.496 430.929 386.182 430.099 388.647C429.269 391.089 428.06 393.213 426.473 395.02C424.886 396.826 422.933 398.242 420.614 399.268C418.295 400.269 415.658 400.769 412.704 400.769C409.725 400.769 407.064 400.269 404.72 399.268C402.401 398.242 400.448 396.826 398.861 395.02C397.25 393.213 396.029 391.089 395.199 388.647C394.369 386.182 393.954 383.496 393.954 380.591V379.822ZM404.134 380.591C404.134 382.251 404.293 383.813 404.611 385.278C404.928 386.719 405.428 387.976 406.112 389.05C406.796 390.149 407.675 391.016 408.749 391.65C409.847 392.285 411.166 392.603 412.704 392.603C414.193 392.603 415.475 392.285 416.549 391.65C417.623 391.016 418.502 390.149 419.186 389.05C419.845 387.976 420.333 386.719 420.651 385.278C420.968 383.813 421.127 382.251 421.127 380.591V379.822C421.127 378.21 420.968 376.685 420.651 375.244C420.333 373.804 419.845 372.534 419.186 371.436C418.502 370.337 417.623 369.47 416.549 368.835C415.475 368.201 414.169 367.883 412.631 367.883C411.117 367.883 409.823 368.201 408.749 368.835C407.675 369.47 406.796 370.337 406.112 371.436C405.428 372.534 404.928 373.804 404.611 375.244C404.293 376.685 404.134 378.21 404.134 379.822V380.591ZM438.739 400V360.376H447.968L448.59 365.869C449.103 365.137 449.665 364.465 450.275 363.855C450.885 363.245 451.532 362.695 452.216 362.207C453.388 361.377 454.67 360.742 456.061 360.303C457.453 359.863 458.93 359.644 460.492 359.644C462.494 359.644 464.325 359.937 465.985 360.522C467.646 361.108 469.086 362.036 470.307 363.306C471.503 364.6 472.431 366.26 473.09 368.286C473.774 370.288 474.115 372.729 474.115 375.61V400H463.935V375.757C463.935 374.194 463.752 372.913 463.385 371.912C463.044 370.886 462.543 370.081 461.884 369.495C461.225 368.909 460.431 368.506 459.504 368.286C458.576 368.042 457.526 367.92 456.354 367.92C455.378 367.92 454.474 368.03 453.644 368.25C452.838 368.469 452.118 368.799 451.483 369.238C450.971 369.556 450.507 369.934 450.092 370.374C449.677 370.813 449.298 371.301 448.957 371.838V400H438.739ZM507.695 389.124C507.695 388.513 507.548 387.976 507.255 387.512C506.987 387.048 506.499 386.609 505.791 386.194C505.058 385.803 504.094 385.437 502.897 385.095C501.701 384.753 500.188 384.412 498.356 384.07C496.037 383.606 493.913 383.032 491.984 382.349C490.08 381.641 488.444 380.786 487.077 379.785C485.71 378.809 484.636 377.673 483.854 376.379C483.098 375.085 482.719 373.596 482.719 371.912C482.719 370.276 483.11 368.713 483.891 367.224C484.672 365.735 485.795 364.429 487.26 363.306C488.725 362.183 490.507 361.292 492.607 360.632C494.707 359.973 497.075 359.644 499.711 359.644C502.47 359.644 504.948 359.973 507.146 360.632C509.343 361.267 511.21 362.146 512.749 363.269C514.262 364.417 515.422 365.771 516.228 367.334C517.033 368.896 517.436 370.593 517.436 372.424H507.255C507.255 371.765 507.146 371.155 506.926 370.593C506.706 370.007 506.376 369.482 505.937 369.019C505.327 368.408 504.497 367.92 503.447 367.554C502.421 367.188 501.176 367.004 499.711 367.004C498.466 367.004 497.38 367.126 496.452 367.371C495.524 367.615 494.768 367.957 494.182 368.396C493.645 368.787 493.229 369.25 492.937 369.788C492.668 370.3 492.534 370.85 492.534 371.436C492.534 372.021 492.656 372.571 492.9 373.083C493.144 373.572 493.583 374.011 494.218 374.402C494.829 374.817 495.671 375.195 496.745 375.537C497.819 375.854 499.187 376.135 500.847 376.379C503.239 376.77 505.461 377.271 507.512 377.881C509.562 378.491 511.333 379.272 512.822 380.225C514.311 381.201 515.471 382.385 516.301 383.777C517.155 385.144 517.583 386.78 517.583 388.684C517.583 390.442 517.155 392.065 516.301 393.555C515.471 395.02 514.287 396.289 512.749 397.363C511.186 398.438 509.306 399.28 507.109 399.89C504.912 400.476 502.458 400.769 499.748 400.769C496.77 400.769 494.133 400.378 491.838 399.597C489.567 398.816 487.663 397.791 486.125 396.521C484.587 395.276 483.415 393.86 482.609 392.273C481.828 390.662 481.438 389.05 481.438 387.439H491.142C491.215 388.513 491.508 389.441 492.021 390.222C492.534 390.979 493.193 391.589 493.999 392.053C494.804 392.542 495.72 392.896 496.745 393.115C497.795 393.335 498.869 393.445 499.968 393.445C501.286 393.445 502.434 393.335 503.41 393.115C504.411 392.871 505.229 392.554 505.864 392.163C506.474 391.772 506.926 391.321 507.219 390.808C507.536 390.295 507.695 389.734 507.695 389.124ZM544.204 350.671V360.376H558.999V367.883H544.204V384.912C544.204 386.353 544.363 387.561 544.68 388.538C545.022 389.49 545.498 390.247 546.108 390.808C546.719 391.394 547.451 391.809 548.306 392.053C549.184 392.297 550.161 392.419 551.235 392.419C552.017 392.419 552.81 392.383 553.616 392.31C554.446 392.236 555.239 392.139 555.996 392.017C556.728 391.919 557.412 391.809 558.047 391.687C558.706 391.565 559.267 391.443 559.731 391.321L560.72 398.315C560.012 398.73 559.182 399.097 558.23 399.414C557.278 399.707 556.265 399.951 555.19 400.146C554.116 400.342 552.993 400.488 551.821 400.586C550.674 400.708 549.538 400.769 548.415 400.769C546.243 400.769 544.265 400.488 542.483 399.927C540.725 399.341 539.224 398.438 537.978 397.217C536.709 396.021 535.732 394.495 535.049 392.639C534.365 390.759 534.023 388.513 534.023 385.901V367.883H524.978V360.376H534.023V350.671H544.204ZM380.406 472.644C381.944 472.644 383.36 472.753 384.654 472.973C385.972 473.168 387.034 473.388 387.84 473.632L386.339 483.776C384.996 483.459 383.617 483.227 382.2 483.081C380.809 482.91 379.478 482.824 378.209 482.824C376.89 482.824 375.694 482.946 374.62 483.19C373.57 483.41 372.63 483.752 371.8 484.216C370.799 484.753 369.945 485.437 369.237 486.267C368.529 487.097 367.943 488.073 367.479 489.196V513H357.298V473.376H366.783L367.186 478.979L367.259 479.858C368.87 477.612 370.799 475.854 373.045 474.584C375.291 473.291 377.745 472.644 380.406 472.644ZM414.571 513.732C411.52 513.732 408.749 513.232 406.258 512.231C403.768 511.23 401.632 509.863 399.85 508.129C398.068 506.42 396.688 504.406 395.712 502.087C394.759 499.743 394.283 497.241 394.283 494.58V493.115C394.283 490.087 394.759 487.329 395.712 484.838C396.664 482.324 397.994 480.163 399.703 478.356C401.412 476.55 403.439 475.146 405.782 474.145C408.126 473.144 410.677 472.644 413.436 472.644C416.293 472.644 418.832 473.12 421.053 474.072C423.3 475 425.204 476.318 426.766 478.027C428.304 479.736 429.476 481.799 430.282 484.216C431.088 486.608 431.49 489.257 431.49 492.163V496.484H404.611V496.594C404.952 498.181 405.392 499.462 405.929 500.439C406.466 501.391 407.186 502.258 408.09 503.039C409.017 503.845 410.079 504.467 411.276 504.907C412.472 505.346 413.778 505.566 415.194 505.566C417.196 505.566 419.137 505.188 421.017 504.431C422.897 503.674 424.423 502.539 425.594 501.025L430.685 506.518C429.391 508.349 427.34 510.009 424.532 511.499C421.725 512.988 418.404 513.732 414.571 513.732ZM413.363 480.883C412.216 480.883 411.166 481.091 410.214 481.506C409.261 481.896 408.431 482.47 407.723 483.227C406.991 483.984 406.381 484.887 405.892 485.937C405.404 486.987 405.038 488.159 404.794 489.453H421.493V488.647C421.493 487.573 421.298 486.56 420.907 485.607C420.516 484.655 419.979 483.825 419.296 483.117C418.612 482.434 417.77 481.896 416.769 481.506C415.792 481.091 414.657 480.883 413.363 480.883ZM457.416 463.671V473.376H472.211V480.883H457.416V497.912C457.416 499.353 457.575 500.561 457.892 501.538C458.234 502.49 458.71 503.247 459.32 503.808C459.931 504.394 460.663 504.809 461.518 505.053C462.397 505.297 463.373 505.419 464.447 505.419C465.229 505.419 466.022 505.383 466.828 505.31C467.658 505.236 468.451 505.139 469.208 505.017C469.941 504.919 470.624 504.809 471.259 504.687C471.918 504.565 472.48 504.443 472.943 504.321L473.932 511.315C473.224 511.73 472.394 512.097 471.442 512.414C470.49 512.707 469.477 512.951 468.402 513.146C467.328 513.342 466.205 513.488 465.033 513.586C463.886 513.708 462.751 513.769 461.628 513.769C459.455 513.769 457.477 513.488 455.695 512.927C453.937 512.341 452.436 511.438 451.191 510.217C449.921 509.021 448.944 507.495 448.261 505.639C447.577 503.759 447.235 501.513 447.235 498.901V480.883H438.19V473.376H447.235V463.671H457.416ZM507.988 513L507.402 507.434C506.059 509.411 504.436 510.961 502.531 512.084C500.651 513.208 498.588 513.769 496.342 513.769C494.292 513.769 492.412 513.452 490.703 512.817C488.994 512.182 487.529 511.169 486.308 509.777C485.087 508.41 484.135 506.665 483.452 504.541C482.792 502.392 482.463 499.816 482.463 496.813V473.376H492.644V496.887C492.644 498.498 492.753 499.853 492.973 500.952C493.217 502.05 493.596 502.929 494.108 503.588C494.621 504.272 495.292 504.76 496.123 505.053C496.953 505.346 497.966 505.493 499.162 505.493C500.236 505.493 501.201 505.383 502.055 505.163C502.934 504.943 503.703 504.626 504.362 504.211C504.924 503.845 505.424 503.405 505.864 502.893C506.303 502.38 506.682 501.806 506.999 501.171V473.376H517.216V513H507.988ZM553.982 472.644C555.52 472.644 556.936 472.753 558.23 472.973C559.548 473.168 560.61 473.388 561.416 473.632L559.914 483.776C558.572 483.459 557.192 483.227 555.776 483.081C554.385 482.91 553.054 482.824 551.785 482.824C550.466 482.824 549.27 482.946 548.196 483.19C547.146 483.41 546.206 483.752 545.376 484.216C544.375 484.753 543.52 485.437 542.812 486.267C542.104 487.097 541.518 488.073 541.055 489.196V513H530.874V473.376H540.359L540.762 478.979L540.835 479.858C542.446 477.612 544.375 475.854 546.621 474.584C548.867 473.291 551.321 472.644 553.982 472.644ZM568.921 513V473.376H578.15L578.772 478.869C579.285 478.137 579.846 477.465 580.457 476.855C581.067 476.245 581.714 475.695 582.398 475.207C583.57 474.377 584.851 473.742 586.243 473.303C587.635 472.863 589.112 472.644 590.674 472.644C592.676 472.644 594.507 472.937 596.167 473.522C597.827 474.108 599.268 475.036 600.489 476.306C601.685 477.6 602.613 479.26 603.272 481.286C603.955 483.288 604.297 485.729 604.297 488.61V513H594.117V488.757C594.117 487.194 593.933 485.913 593.567 484.912C593.225 483.886 592.725 483.081 592.066 482.495C591.407 481.909 590.613 481.506 589.685 481.286C588.758 481.042 587.708 480.92 586.536 480.92C585.559 480.92 584.656 481.03 583.826 481.25C583.02 481.469 582.3 481.799 581.665 482.238C581.153 482.556 580.689 482.934 580.274 483.374C579.859 483.813 579.48 484.301 579.138 484.838V513H568.921ZM986.566 499.121C986.566 498.071 986.395 497.119 986.054 496.264C985.736 495.41 985.211 494.616 984.479 493.884C983.722 493.176 982.758 492.517 981.586 491.906C980.414 491.296 978.998 490.71 977.338 490.148C974.945 489.343 972.772 488.464 970.819 487.512C968.891 486.535 967.243 485.4 965.875 484.106C964.484 482.836 963.41 481.359 962.653 479.675C961.92 477.966 961.554 475.964 961.554 473.669C961.554 471.618 961.884 469.75 962.543 468.066C963.226 466.357 964.179 464.868 965.399 463.598C966.62 462.353 968.097 461.352 969.83 460.595C971.588 459.814 973.541 459.301 975.69 459.057V451.11H981.366V459.13C983.392 459.399 985.224 459.948 986.859 460.778C988.495 461.584 989.899 462.634 991.071 463.928C992.365 465.393 993.353 467.15 994.037 469.201C994.745 471.228 995.099 473.547 995.099 476.159H986.383C986.383 474.548 986.176 473.12 985.761 471.875C985.37 470.605 984.808 469.543 984.076 468.688C983.392 467.907 982.55 467.297 981.549 466.857C980.573 466.418 979.474 466.198 978.253 466.198C976.862 466.198 975.653 466.394 974.628 466.784C973.627 467.15 972.797 467.675 972.138 468.359C971.527 469.018 971.063 469.799 970.746 470.703C970.429 471.582 970.27 472.558 970.27 473.632C970.27 474.707 970.429 475.659 970.746 476.489C971.088 477.319 971.637 478.076 972.394 478.759C973.126 479.467 974.091 480.126 975.287 480.737C976.483 481.347 977.948 481.958 979.682 482.568C982.074 483.422 984.235 484.338 986.163 485.314C988.092 486.267 989.74 487.377 991.107 488.647C992.474 489.941 993.512 491.43 994.22 493.115C994.953 494.799 995.319 496.777 995.319 499.047C995.319 501.196 994.977 503.125 994.293 504.833C993.61 506.518 992.621 507.971 991.327 509.191C990.057 510.437 988.519 511.438 986.713 512.194C984.906 512.927 982.892 513.403 980.67 513.623V520.727H974.994V513.623C972.992 513.427 971.051 512.976 969.171 512.268C967.316 511.56 965.668 510.534 964.227 509.191C962.787 507.849 961.64 506.164 960.785 504.138C959.931 502.087 959.503 499.633 959.503 496.777H968.256C968.256 498.657 968.536 500.231 969.098 501.501C969.66 502.746 970.38 503.735 971.259 504.467C972.138 505.224 973.139 505.761 974.262 506.079C975.385 506.372 976.52 506.518 977.667 506.518C979.132 506.518 980.426 506.335 981.549 505.969C982.697 505.603 983.649 505.078 984.406 504.394C985.114 503.759 985.651 502.99 986.017 502.087C986.383 501.184 986.566 500.195 986.566 499.121ZM1032.71 526.293C1030.31 526.245 1028.24 525.695 1026.48 524.646C1024.72 523.62 1023.28 522.277 1022.16 520.617C1021.01 518.981 1020.17 517.15 1019.63 515.124C1019.1 513.122 1018.83 511.157 1018.83 509.228V503.149C1018.83 499.804 1018.03 497.387 1016.45 495.898C1014.88 494.409 1012.48 493.664 1009.23 493.664V487.182C1012.48 487.182 1014.88 486.438 1016.45 484.948C1018.03 483.459 1018.83 481.018 1018.83 477.624V471.545C1018.83 469.519 1019.11 467.431 1019.67 465.283C1020.23 463.134 1021.12 461.242 1022.34 459.606C1023.39 458.117 1024.77 456.909 1026.48 455.981C1028.21 455.029 1030.29 454.541 1032.71 454.516L1033.73 459.606C1032.15 459.606 1030.9 459.973 1030 460.705C1029.09 461.413 1028.42 462.341 1027.98 463.488C1027.54 464.636 1027.27 465.917 1027.18 467.333C1027.1 468.75 1027.07 470.153 1027.07 471.545V477.624C1027.07 480.529 1026.36 483.105 1024.94 485.351C1023.55 487.573 1021.39 489.27 1018.46 490.441C1021.42 491.589 1023.58 493.273 1024.94 495.495C1026.33 497.692 1027.04 500.244 1027.07 503.149V509.228C1027.07 510.62 1027.15 512.023 1027.32 513.439C1027.52 514.855 1027.87 516.137 1028.39 517.285C1028.9 518.432 1029.58 519.36 1030.44 520.068C1031.29 520.8 1032.39 521.167 1033.73 521.167L1032.71 526.293ZM1226.68 521.167C1228 521.167 1229.08 520.8 1229.94 520.068C1230.82 519.36 1231.51 518.432 1232.03 517.285C1232.54 516.137 1232.89 514.855 1233.09 513.439C1233.31 512.023 1233.42 510.62 1233.42 509.228V503.149C1233.42 501.538 1233.62 500.024 1234.04 498.608C1234.48 497.167 1235.15 495.874 1236.05 494.726C1236.71 493.823 1237.51 493.017 1238.43 492.309C1239.39 491.577 1240.47 490.954 1241.69 490.441C1240.62 490.002 1239.64 489.477 1238.76 488.867C1237.91 488.232 1237.15 487.536 1236.49 486.779C1235.44 485.559 1234.66 484.179 1234.15 482.641C1233.66 481.079 1233.42 479.406 1233.42 477.624V471.545C1233.42 470.153 1233.36 468.75 1233.23 467.333C1233.14 465.917 1232.88 464.636 1232.46 463.488C1232.03 462.341 1231.35 461.413 1230.45 460.705C1229.55 459.973 1228.3 459.606 1226.72 459.606L1227.74 454.516C1230.26 454.541 1232.38 455.065 1234.11 456.091C1235.87 457.092 1237.3 458.422 1238.4 460.083C1239.54 461.718 1240.36 463.562 1240.85 465.612C1241.36 467.639 1241.62 469.616 1241.62 471.545V477.624C1241.62 479.04 1241.74 480.285 1241.99 481.359C1242.25 482.434 1242.67 483.349 1243.23 484.106C1243.96 485.156 1245 485.937 1246.34 486.45C1247.69 486.938 1249.31 487.182 1251.21 487.182V493.664C1249.29 493.664 1247.66 493.92 1246.34 494.433C1245.03 494.921 1243.99 495.715 1243.23 496.813C1242.69 497.546 1242.29 498.449 1242.02 499.523C1241.75 500.573 1241.62 501.782 1241.62 503.149V509.228C1241.62 511.157 1241.34 513.134 1240.78 515.161C1240.22 517.187 1239.39 519.006 1238.29 520.617C1237.16 522.277 1235.72 523.632 1233.97 524.682C1232.21 525.732 1230.13 526.269 1227.74 526.293L1226.68 521.167Z" fill="#B373D4"/>
<path d="M666.183 287V253.931H655.563V247.376H666.183V244.959C666.183 242.371 666.573 240.101 667.355 238.147C668.16 236.17 669.296 234.51 670.76 233.167C672.225 231.849 673.983 230.848 676.034 230.164C678.109 229.48 680.428 229.139 682.992 229.139C683.895 229.139 684.774 229.188 685.629 229.285C686.507 229.358 687.362 229.456 688.192 229.578C688.876 229.676 689.571 229.798 690.279 229.944C690.987 230.066 691.708 230.201 692.44 230.347L691.744 237.342C690.768 237.073 689.657 236.841 688.412 236.646C687.191 236.451 685.799 236.353 684.237 236.353C682.601 236.353 681.185 236.548 679.989 236.939C678.817 237.33 677.853 237.903 677.096 238.66C676.388 239.368 675.851 240.247 675.484 241.297C675.143 242.347 674.972 243.567 674.972 244.959V247.376H689.657V253.931H674.972V287H666.183ZM698.004 266.822C698.004 263.941 698.419 261.28 699.25 258.838C700.08 256.373 701.288 254.236 702.875 252.43C704.438 250.623 706.354 249.207 708.625 248.182C710.895 247.156 713.483 246.644 716.388 246.644C719.293 246.644 721.881 247.156 724.152 248.182C726.447 249.207 728.388 250.623 729.975 252.43C731.537 254.236 732.733 256.373 733.563 258.838C734.394 261.28 734.809 263.941 734.809 266.822V267.591C734.809 270.496 734.394 273.169 733.563 275.611C732.733 278.052 731.537 280.176 729.975 281.983C728.412 283.79 726.483 285.206 724.188 286.231C721.918 287.256 719.342 287.769 716.461 287.769C713.556 287.769 710.956 287.256 708.661 286.231C706.366 285.206 704.438 283.79 702.875 281.983C701.288 280.176 700.08 278.052 699.25 275.611C698.419 273.169 698.004 270.496 698.004 267.591V266.822ZM706.757 267.591C706.757 269.373 706.94 271.058 707.306 272.645C707.697 274.231 708.295 275.623 709.101 276.819C709.882 278.016 710.883 278.968 712.104 279.676C713.324 280.359 714.777 280.701 716.461 280.701C718.097 280.701 719.525 280.359 720.746 279.676C721.967 278.968 722.968 278.016 723.749 276.819C724.53 275.623 725.104 274.231 725.47 272.645C725.861 271.058 726.056 269.373 726.056 267.591V266.822C726.056 265.088 725.861 263.428 725.47 261.841C725.08 260.254 724.506 258.863 723.749 257.667C722.943 256.47 721.93 255.518 720.709 254.81C719.513 254.102 718.073 253.748 716.388 253.748C714.728 253.748 713.288 254.102 712.067 254.81C710.871 255.518 709.882 256.47 709.101 257.667C708.295 258.863 707.697 260.254 707.306 261.841C706.94 263.428 706.757 265.088 706.757 266.822V267.591ZM741.398 266.822C741.398 263.941 741.813 261.28 742.643 258.838C743.474 256.373 744.682 254.236 746.269 252.43C747.831 250.623 749.748 249.207 752.018 248.182C754.289 247.156 756.877 246.644 759.782 246.644C762.687 246.644 765.275 247.156 767.546 248.182C769.841 249.207 771.782 250.623 773.369 252.43C774.931 254.236 776.127 256.373 776.957 258.838C777.788 261.28 778.203 263.941 778.203 266.822V267.591C778.203 270.496 777.788 273.169 776.957 275.611C776.127 278.052 774.931 280.176 773.369 281.983C771.806 283.79 769.877 285.206 767.582 286.231C765.312 287.256 762.736 287.769 759.855 287.769C756.95 287.769 754.35 287.256 752.055 286.231C749.76 285.206 747.831 283.79 746.269 281.983C744.682 280.176 743.474 278.052 742.643 275.611C741.813 273.169 741.398 270.496 741.398 267.591V266.822ZM750.151 267.591C750.151 269.373 750.334 271.058 750.7 272.645C751.091 274.231 751.689 275.623 752.495 276.819C753.276 278.016 754.277 278.968 755.497 279.676C756.718 280.359 758.171 280.701 759.855 280.701C761.491 280.701 762.919 280.359 764.14 279.676C765.361 278.968 766.362 278.016 767.143 276.819C767.924 275.623 768.498 274.231 768.864 272.645C769.255 271.058 769.45 269.373 769.45 267.591V266.822C769.45 265.088 769.255 263.428 768.864 261.841C768.474 260.254 767.9 258.863 767.143 257.667C766.337 256.47 765.324 255.518 764.103 254.81C762.907 254.102 761.467 253.748 759.782 253.748C758.122 253.748 756.682 254.102 755.461 254.81C754.265 255.518 753.276 256.47 752.495 257.667C751.689 258.863 751.091 260.254 750.7 261.841C750.334 263.428 750.151 265.088 750.151 266.822V267.591ZM863.965 372.791H830.127V365.466H863.965V372.791ZM863.965 388.318H830.127V381.03H863.965V388.318Z" fill="#68A3E8"/>
<path d="M793.545 265.32C793.545 261.878 793.813 258.631 794.35 255.579C794.888 252.503 795.608 249.659 796.511 247.046C797.439 244.483 798.501 242.127 799.697 239.979C800.918 237.83 802.2 235.926 803.542 234.266C804.861 232.605 806.216 231.202 807.607 230.054C808.999 228.882 810.342 227.979 811.636 227.344L813.393 232.435C812.612 233.021 811.831 233.729 811.05 234.559C810.268 235.389 809.499 236.329 808.742 237.378C807.693 238.868 806.704 240.613 805.776 242.615C804.873 244.617 804.092 246.802 803.432 249.17C802.822 251.392 802.334 253.846 801.968 256.531C801.626 259.217 801.455 262.122 801.455 265.247V266.016C801.455 269.068 801.626 271.912 801.968 274.549C802.309 277.161 802.712 279.383 803.176 281.214C803.762 283.411 804.433 285.45 805.19 287.33C805.971 289.209 806.789 290.87 807.644 292.31C808.547 293.775 809.487 295.069 810.464 296.192C811.44 297.315 812.417 298.255 813.393 299.012L811.636 303.919C810.342 303.284 808.999 302.381 807.607 301.209C806.216 300.062 804.848 298.658 803.506 296.998C802.163 295.337 800.881 293.433 799.66 291.285C798.464 289.161 797.414 286.792 796.511 284.18C795.608 281.592 794.888 278.785 794.35 275.757C793.813 272.706 793.545 269.434 793.545 265.943V265.32ZM855.908 265.943C855.908 269.361 855.628 272.583 855.066 275.611C854.529 278.638 853.797 281.446 852.869 284.034C851.941 286.646 850.867 289.026 849.646 291.175C848.425 293.323 847.132 295.228 845.764 296.888C844.397 298.597 843.006 300.037 841.59 301.209C840.174 302.381 838.806 303.284 837.488 303.919L835.767 299.012C836.695 298.328 837.622 297.461 838.55 296.412C839.478 295.362 840.381 294.153 841.26 292.786C842.188 291.272 843.054 289.551 843.86 287.623C844.69 285.718 845.386 283.606 845.947 281.287C846.485 279.139 846.9 276.795 847.193 274.256C847.51 271.717 847.669 268.97 847.669 266.016V265.247C847.669 262.195 847.498 259.388 847.156 256.824C846.814 254.261 846.387 251.966 845.874 249.939C845.191 247.303 844.361 244.935 843.384 242.835C842.432 240.735 841.431 238.917 840.381 237.378C839.649 236.28 838.88 235.303 838.074 234.449C837.293 233.57 836.524 232.837 835.767 232.251L837.488 227.344C838.806 227.979 840.174 228.895 841.59 230.091C843.03 231.263 844.422 232.679 845.764 234.339C847.156 236.048 848.462 237.977 849.683 240.125C850.904 242.249 851.966 244.617 852.869 247.229C853.772 249.817 854.505 252.613 855.066 255.616C855.628 258.594 855.908 261.829 855.908 265.32V265.943ZM945.919 300.293C943.526 300.245 941.451 299.695 939.693 298.646C937.936 297.62 936.495 296.277 935.372 294.617C934.225 292.981 933.382 291.15 932.845 289.124C932.308 287.122 932.04 285.157 932.04 283.228V277.149C932.04 273.804 931.246 271.387 929.659 269.898C928.097 268.409 925.692 267.664 922.445 267.664V261.182C925.692 261.182 928.097 260.438 929.659 258.948C931.246 257.459 932.04 255.018 932.04 251.624V245.545C932.04 243.519 932.32 241.431 932.882 239.283C933.443 237.134 934.334 235.242 935.555 233.606C936.605 232.117 937.984 230.909 939.693 229.981C941.427 229.029 943.502 228.541 945.919 228.516L946.944 233.606C945.357 233.606 944.112 233.973 943.209 234.705C942.306 235.413 941.634 236.341 941.195 237.488C940.755 238.636 940.487 239.917 940.389 241.333C940.316 242.75 940.279 244.153 940.279 245.545V251.624C940.279 254.529 939.571 257.105 938.155 259.351C936.764 261.573 934.603 263.27 931.673 264.441C934.627 265.589 936.788 267.273 938.155 269.495C939.547 271.692 940.255 274.244 940.279 277.149V283.228C940.279 284.62 940.365 286.023 940.536 287.439C940.731 288.855 941.085 290.137 941.598 291.285C942.11 292.432 942.794 293.36 943.648 294.068C944.503 294.8 945.602 295.167 946.944 295.167L945.919 300.293ZM612.828 400V360.376H620.738L621.287 366.016C621.824 365.259 622.41 364.563 623.045 363.928C623.704 363.269 624.4 362.683 625.133 362.17C626.304 361.365 627.586 360.742 628.978 360.303C630.369 359.863 631.834 359.644 633.372 359.644C635.399 359.644 637.254 359.937 638.939 360.522C640.623 361.108 642.064 362.036 643.26 363.306C644.456 364.575 645.384 366.199 646.043 368.176C646.702 370.129 647.032 372.498 647.032 375.281V400H638.279V375.427C638.279 373.792 638.096 372.424 637.73 371.326C637.364 370.227 636.827 369.348 636.119 368.689C635.411 368.03 634.556 367.566 633.555 367.297C632.554 367.004 631.407 366.858 630.113 366.858C629.039 366.858 628.038 367.004 627.11 367.297C626.182 367.566 625.34 367.957 624.583 368.469C623.997 368.86 623.448 369.336 622.935 369.897C622.423 370.459 621.971 371.069 621.58 371.729V400H612.828ZM681.527 400C681.258 399.512 681.039 398.926 680.868 398.242C680.721 397.534 680.587 396.802 680.465 396.045C679.855 396.68 679.159 397.29 678.378 397.876C677.621 398.438 676.766 398.926 675.814 399.341C674.862 399.78 673.837 400.122 672.738 400.366C671.639 400.61 670.455 400.732 669.186 400.732C667.135 400.732 665.255 400.439 663.546 399.854C661.861 399.243 660.421 398.413 659.225 397.363C658.004 396.338 657.052 395.105 656.368 393.665C655.709 392.2 655.379 390.625 655.379 388.94C655.379 386.768 655.807 384.851 656.661 383.191C657.54 381.506 658.81 380.115 660.47 379.016C662.008 377.991 663.9 377.209 666.146 376.672C668.417 376.135 670.98 375.867 673.837 375.867H680.209V373.193C680.209 372.168 680.025 371.24 679.659 370.41C679.317 369.58 678.817 368.86 678.158 368.25C677.45 367.639 676.583 367.175 675.558 366.858C674.557 366.516 673.397 366.345 672.079 366.345C670.882 366.345 669.833 366.492 668.929 366.785C668.05 367.078 667.318 367.48 666.732 367.993C666.146 368.457 665.707 369.031 665.414 369.714C665.145 370.374 665.011 371.082 665.011 371.838H656.222C656.246 370.251 656.625 368.726 657.357 367.261C658.089 365.796 659.164 364.502 660.58 363.379C661.947 362.231 663.631 361.328 665.633 360.669C667.66 359.985 669.967 359.644 672.555 359.644C674.874 359.644 677.035 359.937 679.037 360.522C681.063 361.084 682.809 361.926 684.274 363.049C685.738 364.172 686.886 365.601 687.716 367.334C688.546 369.043 688.961 371.021 688.961 373.267V390.881C688.961 392.664 689.083 394.275 689.327 395.715C689.596 397.131 689.974 398.352 690.462 399.377V400H681.527ZM670.87 393.701C672.018 393.701 673.08 393.555 674.056 393.262C675.057 392.969 675.961 392.59 676.766 392.126C677.572 391.663 678.268 391.138 678.854 390.552C679.44 389.966 679.891 389.355 680.209 388.721V381.396H674.569C672.665 381.396 671.017 381.58 669.625 381.946C668.233 382.288 667.123 382.788 666.293 383.447C665.56 384.009 665.011 384.68 664.645 385.461C664.303 386.243 664.132 387.122 664.132 388.098C664.132 388.904 664.278 389.661 664.571 390.369C664.864 391.052 665.292 391.638 665.853 392.126C666.415 392.615 667.11 393.005 667.941 393.298C668.771 393.567 669.747 393.701 670.87 393.701ZM704.596 360.376L704.853 364.734C705.609 363.147 706.647 361.902 707.965 360.999C709.308 360.095 710.919 359.644 712.799 359.644C713.776 359.644 714.655 359.753 715.436 359.973C716.217 360.193 716.889 360.535 717.45 360.999C717.89 361.34 718.28 361.755 718.622 362.244C718.964 362.708 719.257 363.245 719.501 363.855C719.843 363.293 720.233 362.769 720.673 362.28C721.112 361.792 721.588 361.377 722.101 361.035C722.76 360.596 723.493 360.254 724.298 360.01C725.128 359.766 726.032 359.644 727.008 359.644C728.278 359.644 729.438 359.863 730.487 360.303C731.562 360.718 732.489 361.365 733.271 362.244C734.052 363.171 734.65 364.38 735.065 365.869C735.504 367.334 735.724 369.104 735.724 371.179V400H727.667V371.106C727.667 370.325 727.582 369.666 727.411 369.128C727.24 368.567 726.996 368.115 726.679 367.773C726.361 367.456 725.971 367.224 725.507 367.078C725.067 366.931 724.579 366.858 724.042 366.858C723.48 366.858 722.992 366.931 722.577 367.078C722.162 367.224 721.796 367.432 721.479 367.7C721.186 367.944 720.941 368.237 720.746 368.579C720.551 368.896 720.404 369.263 720.307 369.678C720.307 369.775 720.307 369.897 720.307 370.044C720.307 370.166 720.307 370.349 720.307 370.593V400H712.396V371.069C712.396 370.288 712.311 369.629 712.14 369.092C711.994 368.53 711.762 368.091 711.444 367.773C711.127 367.456 710.749 367.224 710.309 367.078C709.894 366.931 709.418 366.858 708.881 366.858C708.295 366.858 707.77 366.943 707.306 367.114C706.867 367.261 706.488 367.493 706.171 367.81C705.927 368.03 705.707 368.286 705.512 368.579C705.341 368.872 705.182 369.202 705.036 369.568V400H696.979V360.376H704.596ZM761.503 400.732C758.574 400.732 755.888 400.244 753.447 399.268C751.03 398.291 748.954 396.936 747.221 395.203C745.488 393.494 744.145 391.479 743.193 389.16C742.265 386.816 741.801 384.29 741.801 381.58V380.078C741.801 376.978 742.289 374.17 743.266 371.655C744.243 369.141 745.585 366.992 747.294 365.21C749.003 363.428 750.981 362.061 753.227 361.108C755.497 360.132 757.914 359.644 760.478 359.644C763.334 359.644 765.861 360.132 768.059 361.108C770.256 362.061 772.099 363.391 773.588 365.1C775.078 366.833 776.201 368.896 776.957 371.289C777.714 373.682 778.093 376.294 778.093 379.126V382.898H750.627V383.081C750.895 384.814 751.31 386.267 751.872 387.439C752.434 388.611 753.203 389.661 754.179 390.588C755.156 391.565 756.303 392.322 757.621 392.859C758.964 393.396 760.429 393.665 762.016 393.665C764.189 393.665 766.215 393.25 768.095 392.419C769.975 391.565 771.525 390.356 772.746 388.794L777.434 393.335C776.115 395.239 774.089 396.948 771.354 398.462C768.644 399.976 765.361 400.732 761.503 400.732ZM760.441 366.748C759.196 366.748 758.037 366.98 756.962 367.444C755.913 367.883 754.973 368.518 754.142 369.348C753.312 370.203 752.617 371.228 752.055 372.424C751.494 373.621 751.079 374.976 750.81 376.489H769.45V375.903C769.45 374.756 769.243 373.621 768.828 372.498C768.413 371.35 767.827 370.349 767.07 369.495C766.337 368.665 765.41 368.005 764.287 367.517C763.188 367.004 761.906 366.748 760.441 366.748ZM272.012 634.167C273.33 634.167 274.417 633.8 275.271 633.068C276.15 632.36 276.846 631.432 277.358 630.285C277.871 629.137 278.225 627.855 278.42 626.439C278.64 625.023 278.75 623.62 278.75 622.228V616.149C278.75 614.538 278.958 613.024 279.373 611.608C279.812 610.167 280.483 608.874 281.387 607.726C282.046 606.823 282.839 606.017 283.767 605.309C284.719 604.577 285.806 603.954 287.026 603.441C285.952 603.002 284.976 602.477 284.097 601.867C283.242 601.232 282.485 600.536 281.826 599.779C280.776 598.559 279.995 597.179 279.482 595.641C278.994 594.079 278.75 592.406 278.75 590.624V584.545C278.75 583.153 278.689 581.75 278.567 580.333C278.469 578.917 278.213 577.636 277.798 576.488C277.358 575.341 276.687 574.413 275.784 573.705C274.88 572.973 273.635 572.606 272.048 572.606L273.074 567.516C275.588 567.541 277.712 568.065 279.446 569.091C281.204 570.092 282.632 571.422 283.73 573.083C284.878 574.718 285.696 576.562 286.184 578.612C286.697 580.639 286.953 582.616 286.953 584.545V590.624C286.953 592.04 287.075 593.285 287.319 594.359C287.588 595.434 288.003 596.349 288.564 597.106C289.297 598.156 290.334 598.937 291.677 599.45C293.02 599.938 294.644 600.182 296.548 600.182V606.664C294.619 606.664 292.996 606.92 291.677 607.433C290.359 607.921 289.321 608.715 288.564 609.813C288.027 610.546 287.625 611.449 287.356 612.523C287.087 613.573 286.953 614.782 286.953 616.149V622.228C286.953 624.157 286.672 626.134 286.111 628.161C285.549 630.187 284.719 632.006 283.621 633.617C282.498 635.277 281.057 636.632 279.299 637.682C277.542 638.732 275.466 639.269 273.074 639.293L272.012 634.167Z" fill="#DBBA76"/>
<path d="M942.403 355.835H935.445L926.034 345.837H935.958L942.403 355.835ZM970.197 346.68L976.788 369.495L984.076 346.68H995.026V400H986.749V381.909L987.262 358.105L979.059 383.557H974.481L967.047 358.984L967.523 381.909V400H959.284V346.68H970.197ZM1028.68 400C1028.41 399.512 1028.19 398.926 1028.02 398.242C1027.87 397.534 1027.74 396.802 1027.62 396.045C1027.01 396.68 1026.31 397.29 1025.53 397.876C1024.77 398.438 1023.92 398.926 1022.97 399.341C1022.01 399.78 1020.99 400.122 1019.89 400.366C1018.79 400.61 1017.61 400.732 1016.34 400.732C1014.29 400.732 1012.41 400.439 1010.7 399.854C1009.01 399.243 1007.57 398.413 1006.38 397.363C1005.16 396.338 1004.2 395.105 1003.52 393.665C1002.86 392.2 1002.53 390.625 1002.53 388.94C1002.53 386.768 1002.96 384.851 1003.81 383.191C1004.69 381.506 1005.96 380.115 1007.62 379.016C1009.16 377.991 1011.05 377.209 1013.3 376.672C1015.57 376.135 1018.13 375.867 1020.99 375.867H1027.36V373.193C1027.36 372.168 1027.18 371.24 1026.81 370.41C1026.47 369.58 1025.97 368.86 1025.31 368.25C1024.6 367.639 1023.73 367.175 1022.71 366.858C1021.71 366.516 1020.55 366.345 1019.23 366.345C1018.03 366.345 1016.98 366.492 1016.08 366.785C1015.2 367.078 1014.47 367.48 1013.88 367.993C1013.3 368.457 1012.86 369.031 1012.57 369.714C1012.3 370.374 1012.16 371.082 1012.16 371.838H1003.37C1003.4 370.251 1003.78 368.726 1004.51 367.261C1005.24 365.796 1006.32 364.502 1007.73 363.379C1009.1 362.231 1010.78 361.328 1012.78 360.669C1014.81 359.985 1017.12 359.644 1019.71 359.644C1022.03 359.644 1024.19 359.937 1026.19 360.522C1028.21 361.084 1029.96 361.926 1031.43 363.049C1032.89 364.172 1034.04 365.601 1034.87 367.334C1035.7 369.043 1036.11 371.021 1036.11 373.267V390.881C1036.11 392.664 1036.23 394.275 1036.48 395.715C1036.75 397.131 1037.13 398.352 1037.61 399.377V400H1028.68ZM1018.02 393.701C1019.17 393.701 1020.23 393.555 1021.21 393.262C1022.21 392.969 1023.11 392.59 1023.92 392.126C1024.72 391.663 1025.42 391.138 1026.01 390.552C1026.59 389.966 1027.04 389.355 1027.36 388.721V381.396H1021.72C1019.82 381.396 1018.17 381.58 1016.78 381.946C1015.39 382.288 1014.27 382.788 1013.44 383.447C1012.71 384.009 1012.16 384.68 1011.8 385.461C1011.45 386.243 1011.28 387.122 1011.28 388.098C1011.28 388.904 1011.43 389.661 1011.72 390.369C1012.02 391.052 1012.44 391.638 1013 392.126C1013.57 392.615 1014.26 393.005 1015.09 393.298C1015.92 393.567 1016.9 393.701 1018.02 393.701ZM1074.16 359.644C1075.58 359.644 1076.94 359.741 1078.26 359.937C1079.6 360.132 1080.65 360.364 1081.41 360.632L1080.17 369.275C1078.82 368.982 1077.49 368.762 1076.17 368.616C1074.88 368.469 1073.59 368.396 1072.29 368.396C1070.83 368.396 1069.51 368.542 1068.34 368.835C1067.17 369.128 1066.13 369.58 1065.22 370.19C1064.25 370.776 1063.42 371.521 1062.73 372.424C1062.05 373.328 1061.48 374.365 1061.01 375.537V400H1052.26V360.376H1060.46L1060.83 365.869L1060.87 366.785C1062.48 364.563 1064.41 362.817 1066.65 361.548C1068.92 360.278 1071.43 359.644 1074.16 359.644ZM1103.78 382.751L1099.02 387.256V400H1090.23V343.75H1099.02V376.855L1102.65 372.827L1114.48 360.376H1125.02L1109.61 376.892L1127.26 400H1116.42L1103.78 382.751ZM1132.38 379.895C1132.38 376.892 1132.74 374.158 1133.45 371.692C1134.18 369.202 1135.23 367.065 1136.59 365.283C1137.94 363.501 1139.57 362.122 1141.5 361.145C1143.46 360.144 1145.65 359.644 1148.09 359.644C1150.29 359.644 1152.21 360.034 1153.84 360.815C1155.5 361.572 1156.97 362.659 1158.24 364.075V343.75H1166.99V400H1159.04L1158.64 395.862C1157.37 397.424 1155.86 398.633 1154.1 399.487C1152.34 400.317 1150.32 400.732 1148.02 400.732C1145.6 400.732 1143.43 400.232 1141.5 399.231C1139.57 398.206 1137.94 396.79 1136.59 394.983C1135.25 393.201 1134.21 391.089 1133.48 388.647C1132.75 386.182 1132.38 383.521 1132.38 380.664V379.895ZM1141.14 380.664C1141.14 382.422 1141.31 384.082 1141.65 385.645C1141.99 387.207 1142.53 388.562 1143.26 389.709C1143.99 390.906 1144.93 391.846 1146.08 392.529C1147.23 393.188 1148.61 393.518 1150.22 393.518C1152.2 393.518 1153.83 393.091 1155.12 392.236C1156.42 391.357 1157.46 390.173 1158.24 388.684V371.655C1157.46 370.19 1156.42 369.031 1155.12 368.176C1153.86 367.297 1152.24 366.858 1150.29 366.858C1148.66 366.858 1147.25 367.2 1146.08 367.883C1144.93 368.567 1144 369.507 1143.3 370.703C1142.54 371.899 1141.99 373.291 1141.65 374.878C1141.31 376.44 1141.14 378.113 1141.14 379.895V380.664ZM1175.34 379.822C1175.34 376.941 1175.75 374.28 1176.58 371.838C1177.41 369.373 1178.62 367.236 1180.21 365.43C1181.77 363.623 1183.69 362.207 1185.96 361.182C1188.23 360.156 1190.82 359.644 1193.72 359.644C1196.63 359.644 1199.21 360.156 1201.49 361.182C1203.78 362.207 1205.72 363.623 1207.31 365.43C1208.87 367.236 1210.07 369.373 1210.9 371.838C1211.73 374.28 1212.14 376.941 1212.14 379.822V380.591C1212.14 383.496 1211.73 386.169 1210.9 388.611C1210.07 391.052 1208.87 393.176 1207.31 394.983C1205.75 396.79 1203.82 398.206 1201.52 399.231C1199.25 400.256 1196.68 400.769 1193.79 400.769C1190.89 400.769 1188.29 400.256 1185.99 399.231C1183.7 398.206 1181.77 396.79 1180.21 394.983C1178.62 393.176 1177.41 391.052 1176.58 388.611C1175.75 386.169 1175.34 383.496 1175.34 380.591V379.822ZM1184.09 380.591C1184.09 382.373 1184.27 384.058 1184.64 385.645C1185.03 387.231 1185.63 388.623 1186.43 389.819C1187.22 391.016 1188.22 391.968 1189.44 392.676C1190.66 393.359 1192.11 393.701 1193.79 393.701C1195.43 393.701 1196.86 393.359 1198.08 392.676C1199.3 391.968 1200.3 391.016 1201.08 389.819C1201.86 388.623 1202.44 387.231 1202.8 385.645C1203.19 384.058 1203.39 382.373 1203.39 380.591V379.822C1203.39 378.088 1203.19 376.428 1202.8 374.841C1202.41 373.254 1201.84 371.863 1201.08 370.667C1200.28 369.47 1199.26 368.518 1198.04 367.81C1196.85 367.102 1195.41 366.748 1193.72 366.748C1192.06 366.748 1190.62 367.102 1189.4 367.81C1188.2 368.518 1187.22 369.47 1186.43 370.667C1185.63 371.863 1185.03 373.254 1184.64 374.841C1184.27 376.428 1184.09 378.088 1184.09 379.822V380.591ZM1223.64 400L1215.99 360.376H1223.9L1227.56 384.656L1228.18 389.233L1228.99 384.656L1234.15 360.376H1239.9L1245.06 384.583L1245.9 389.38L1246.6 384.546L1250.15 360.376H1258.1L1250.45 400H1243.01L1237.88 377.515L1236.97 372.607L1236.09 377.515L1231.07 400H1223.64ZM1263.74 400V360.376H1271.65L1272.2 366.016C1272.73 365.259 1273.32 364.563 1273.95 363.928C1274.61 363.269 1275.31 362.683 1276.04 362.17C1277.21 361.365 1278.5 360.742 1279.89 360.303C1281.28 359.863 1282.74 359.644 1284.28 359.644C1286.31 359.644 1288.16 359.937 1289.85 360.522C1291.53 361.108 1292.97 362.036 1294.17 363.306C1295.37 364.575 1296.29 366.199 1296.95 368.176C1297.61 370.129 1297.94 372.498 1297.94 375.281V400H1289.19V375.427C1289.19 373.792 1289.01 372.424 1288.64 371.326C1288.27 370.227 1287.74 369.348 1287.03 368.689C1286.32 368.03 1285.47 367.566 1284.46 367.297C1283.46 367.004 1282.32 366.858 1281.02 366.858C1279.95 366.858 1278.95 367.004 1278.02 367.297C1277.09 367.566 1276.25 367.957 1275.49 368.469C1274.91 368.86 1274.36 369.336 1273.84 369.897C1273.33 370.459 1272.88 371.069 1272.49 371.729V400H1263.74ZM1332.95 355.835H1325.99L1316.58 345.837H1326.5L1332.95 355.835ZM682.04 468.835H675.082L665.67 458.837H675.594L682.04 468.835ZM733.856 513H725.25V489.233H707.306V513H698.737V459.68H707.306V481.982H725.25V459.68H733.856V513ZM761.503 513.732C758.574 513.732 755.888 513.244 753.447 512.268C751.03 511.291 748.954 509.936 747.221 508.203C745.488 506.494 744.145 504.479 743.193 502.16C742.265 499.816 741.801 497.29 741.801 494.58V493.078C741.801 489.978 742.289 487.17 743.266 484.655C744.243 482.141 745.585 479.992 747.294 478.21C749.003 476.428 750.981 475.061 753.227 474.108C755.497 473.132 757.914 472.644 760.478 472.644C763.334 472.644 765.861 473.132 768.059 474.108C770.256 475.061 772.099 476.391 773.588 478.1C775.078 479.833 776.201 481.896 776.957 484.289C777.714 486.682 778.093 489.294 778.093 492.126V495.898H750.627V496.081C750.895 497.814 751.31 499.267 751.872 500.439C752.434 501.611 753.203 502.661 754.179 503.588C755.156 504.565 756.303 505.322 757.621 505.859C758.964 506.396 760.429 506.665 762.016 506.665C764.189 506.665 766.215 506.25 768.095 505.419C769.975 504.565 771.525 503.356 772.746 501.794L777.434 506.335C776.115 508.239 774.089 509.948 771.354 511.462C768.644 512.976 765.361 513.732 761.503 513.732ZM760.441 479.748C759.196 479.748 758.037 479.98 756.962 480.444C755.913 480.883 754.973 481.518 754.142 482.348C753.312 483.203 752.617 484.228 752.055 485.424C751.494 486.621 751.079 487.976 750.81 489.489H769.45V488.903C769.45 487.756 769.243 486.621 768.828 485.498C768.413 484.35 767.827 483.349 767.07 482.495C766.337 481.665 765.41 481.005 764.287 480.517C763.188 480.004 761.906 479.748 760.441 479.748ZM788.088 456.75H809.438V505.749H821.45V513H788.088V505.749H800.613V464.038H788.088V456.75ZM831.482 456.75H852.832V505.749H864.844V513H831.482V505.749H844.007V464.038H831.482V456.75ZM871.58 492.822C871.58 489.941 871.995 487.28 872.825 484.838C873.655 482.373 874.864 480.236 876.451 478.43C878.013 476.623 879.93 475.207 882.2 474.182C884.471 473.156 887.059 472.644 889.964 472.644C892.869 472.644 895.457 473.156 897.728 474.182C900.023 475.207 901.964 476.623 903.55 478.43C905.113 480.236 906.309 482.373 907.139 484.838C907.969 487.28 908.384 489.941 908.384 492.822V493.591C908.384 496.496 907.969 499.169 907.139 501.611C906.309 504.052 905.113 506.176 903.55 507.983C901.988 509.79 900.059 511.206 897.764 512.231C895.494 513.256 892.918 513.769 890.037 513.769C887.132 513.769 884.532 513.256 882.237 512.231C879.942 511.206 878.013 509.79 876.451 507.983C874.864 506.176 873.655 504.052 872.825 501.611C871.995 499.169 871.58 496.496 871.58 493.591V492.822ZM880.333 493.591C880.333 495.373 880.516 497.058 880.882 498.645C881.273 500.231 881.871 501.623 882.676 502.819C883.458 504.016 884.459 504.968 885.679 505.676C886.9 506.359 888.353 506.701 890.037 506.701C891.673 506.701 893.101 506.359 894.322 505.676C895.543 504.968 896.544 504.016 897.325 502.819C898.106 501.623 898.68 500.231 899.046 498.645C899.437 497.058 899.632 495.373 899.632 493.591V492.822C899.632 491.088 899.437 489.428 899.046 487.841C898.655 486.254 898.082 484.863 897.325 483.667C896.519 482.47 895.506 481.518 894.285 480.81C893.089 480.102 891.649 479.748 889.964 479.748C888.304 479.748 886.863 480.102 885.643 480.81C884.446 481.518 883.458 482.47 882.676 483.667C881.871 484.863 881.273 486.254 880.882 487.841C880.516 489.428 880.333 491.088 880.333 492.822V493.591ZM1284.43 494.946H1276.19L1275.82 459.68H1284.76L1284.43 494.946ZM1275.13 508.605C1275.13 507.189 1275.58 506.005 1276.48 505.053C1277.38 504.101 1278.67 503.625 1280.33 503.625C1281.96 503.625 1283.24 504.101 1284.17 505.053C1285.1 506.005 1285.56 507.189 1285.56 508.605C1285.56 509.997 1285.1 511.157 1284.17 512.084C1283.24 513.012 1281.96 513.476 1280.33 513.476C1278.67 513.476 1277.38 513.012 1276.48 512.084C1275.58 511.157 1275.13 509.997 1275.13 508.605ZM1332.95 468.835H1325.99L1316.58 458.837H1326.5L1332.95 468.835Z" fill="#96B973"/>
<path d="M1363.2 363.708C1363.2 362.024 1363.73 360.583 1364.81 359.387C1365.91 358.191 1367.48 357.593 1369.53 357.593C1371.53 357.593 1373.1 358.191 1374.22 359.387C1375.34 360.559 1375.9 362 1375.9 363.708C1375.9 365.417 1375.33 366.846 1374.18 367.993C1373.06 369.141 1371.51 369.714 1369.53 369.714C1367.53 369.714 1365.97 369.141 1364.84 367.993C1363.75 366.821 1363.2 365.393 1363.2 363.708ZM1373.49 398.865C1373.49 401.501 1372.84 404.175 1371.55 406.885C1370.28 409.619 1368.59 411.926 1366.49 413.806L1361.58 411.206C1362.63 409.473 1363.44 407.642 1364 405.713C1364.59 403.784 1364.88 401.611 1364.88 399.194V391.467H1373.49V398.865ZM1363.2 476.708C1363.2 475.024 1363.73 473.583 1364.81 472.387C1365.91 471.191 1367.48 470.593 1369.53 470.593C1371.53 470.593 1373.1 471.191 1374.22 472.387C1375.34 473.559 1375.9 475 1375.9 476.708C1375.9 478.417 1375.33 479.846 1374.18 480.993C1373.06 482.141 1371.51 482.714 1369.53 482.714C1367.53 482.714 1365.97 482.141 1364.84 480.993C1363.75 479.821 1363.2 478.393 1363.2 476.708ZM1373.49 511.865C1373.49 514.501 1372.84 517.175 1371.55 519.885C1370.28 522.619 1368.59 524.926 1366.49 526.806L1361.58 524.206C1362.63 522.473 1363.44 520.642 1364 518.713C1364.59 516.784 1364.88 514.611 1364.88 512.194V504.467H1373.49V511.865Z" fill="#B3B3B3"/>
<path d="M1046.77 513V473.376H1054.68L1055.23 479.016C1055.76 478.259 1056.35 477.563 1056.98 476.928C1057.64 476.269 1058.34 475.683 1059.07 475.17C1060.24 474.365 1061.53 473.742 1062.92 473.303C1064.31 472.863 1065.77 472.644 1067.31 472.644C1069.34 472.644 1071.19 472.937 1072.88 473.522C1074.56 474.108 1076 475.036 1077.2 476.306C1078.4 477.575 1079.32 479.199 1079.98 481.176C1080.64 483.129 1080.97 485.498 1080.97 488.281V513H1072.22V488.427C1072.22 486.792 1072.04 485.424 1071.67 484.326C1071.3 483.227 1070.77 482.348 1070.06 481.689C1069.35 481.03 1068.5 480.566 1067.49 480.297C1066.49 480.004 1065.35 479.858 1064.05 479.858C1062.98 479.858 1061.98 480.004 1061.05 480.297C1060.12 480.566 1059.28 480.957 1058.52 481.469C1057.94 481.86 1057.39 482.336 1056.87 482.897C1056.36 483.459 1055.91 484.069 1055.52 484.729V513H1046.77ZM1115.47 513C1115.2 512.512 1114.98 511.926 1114.81 511.242C1114.66 510.534 1114.53 509.802 1114.4 509.045C1113.79 509.68 1113.1 510.29 1112.32 510.876C1111.56 511.438 1110.71 511.926 1109.75 512.341C1108.8 512.78 1107.78 513.122 1106.68 513.366C1105.58 513.61 1104.39 513.732 1103.13 513.732C1101.07 513.732 1099.19 513.439 1097.49 512.854C1095.8 512.243 1094.36 511.413 1093.16 510.363C1091.94 509.338 1090.99 508.105 1090.31 506.665C1089.65 505.2 1089.32 503.625 1089.32 501.94C1089.32 499.768 1089.75 497.851 1090.6 496.191C1091.48 494.506 1092.75 493.115 1094.41 492.016C1095.95 490.991 1097.84 490.209 1100.09 489.672C1102.36 489.135 1104.92 488.867 1107.78 488.867H1114.15V486.193C1114.15 485.168 1113.96 484.24 1113.6 483.41C1113.26 482.58 1112.76 481.86 1112.1 481.25C1111.39 480.639 1110.52 480.175 1109.5 479.858C1108.5 479.516 1107.34 479.345 1106.02 479.345C1104.82 479.345 1103.77 479.492 1102.87 479.785C1101.99 480.078 1101.26 480.48 1100.67 480.993C1100.09 481.457 1099.65 482.031 1099.35 482.714C1099.08 483.374 1098.95 484.082 1098.95 484.838H1090.16C1090.19 483.251 1090.56 481.726 1091.3 480.261C1092.03 478.796 1093.1 477.502 1094.52 476.379C1095.89 475.231 1097.57 474.328 1099.57 473.669C1101.6 472.985 1103.91 472.644 1106.49 472.644C1108.81 472.644 1110.97 472.937 1112.98 473.522C1115 474.084 1116.75 474.926 1118.21 476.049C1119.68 477.172 1120.83 478.601 1121.66 480.334C1122.49 482.043 1122.9 484.021 1122.9 486.267V503.881C1122.9 505.664 1123.02 507.275 1123.27 508.715C1123.54 510.131 1123.91 511.352 1124.4 512.377V513H1115.47ZM1104.81 506.701C1105.96 506.701 1107.02 506.555 1108 506.262C1109 505.969 1109.9 505.59 1110.71 505.126C1111.51 504.663 1112.21 504.138 1112.79 503.552C1113.38 502.966 1113.83 502.355 1114.15 501.721V494.396H1108.51C1106.6 494.396 1104.96 494.58 1103.56 494.946C1102.17 495.288 1101.06 495.788 1100.23 496.447C1099.5 497.009 1098.95 497.68 1098.58 498.461C1098.24 499.243 1098.07 500.122 1098.07 501.098C1098.07 501.904 1098.22 502.661 1098.51 503.369C1098.8 504.052 1099.23 504.638 1099.79 505.126C1100.35 505.615 1101.05 506.005 1101.88 506.298C1102.71 506.567 1103.69 506.701 1104.81 506.701ZM1138.54 473.376L1138.79 477.734C1139.55 476.147 1140.59 474.902 1141.9 473.999C1143.25 473.095 1144.86 472.644 1146.74 472.644C1147.72 472.644 1148.59 472.753 1149.38 472.973C1150.16 473.193 1150.83 473.535 1151.39 473.999C1151.83 474.34 1152.22 474.755 1152.56 475.244C1152.9 475.708 1153.2 476.245 1153.44 476.855C1153.78 476.293 1154.17 475.769 1154.61 475.28C1155.05 474.792 1155.53 474.377 1156.04 474.035C1156.7 473.596 1157.43 473.254 1158.24 473.01C1159.07 472.766 1159.97 472.644 1160.95 472.644C1162.22 472.644 1163.38 472.863 1164.43 473.303C1165.5 473.718 1166.43 474.365 1167.21 475.244C1167.99 476.171 1168.59 477.38 1169 478.869C1169.44 480.334 1169.66 482.104 1169.66 484.179V513H1161.61V484.106C1161.61 483.325 1161.52 482.666 1161.35 482.128C1161.18 481.567 1160.94 481.115 1160.62 480.773C1160.3 480.456 1159.91 480.224 1159.45 480.078C1159.01 479.931 1158.52 479.858 1157.98 479.858C1157.42 479.858 1156.93 479.931 1156.52 480.078C1156.1 480.224 1155.74 480.432 1155.42 480.7C1155.12 480.944 1154.88 481.237 1154.69 481.579C1154.49 481.896 1154.34 482.263 1154.25 482.678C1154.25 482.775 1154.25 482.897 1154.25 483.044C1154.25 483.166 1154.25 483.349 1154.25 483.593V513H1146.34V484.069C1146.34 483.288 1146.25 482.629 1146.08 482.092C1145.93 481.53 1145.7 481.091 1145.38 480.773C1145.07 480.456 1144.69 480.224 1144.25 480.078C1143.83 479.931 1143.36 479.858 1142.82 479.858C1142.23 479.858 1141.71 479.943 1141.25 480.114C1140.81 480.261 1140.43 480.493 1140.11 480.81C1139.87 481.03 1139.65 481.286 1139.45 481.579C1139.28 481.872 1139.12 482.202 1138.98 482.568V513H1130.92V473.376H1138.54ZM1195.44 513.732C1192.51 513.732 1189.83 513.244 1187.39 512.268C1184.97 511.291 1182.89 509.936 1181.16 508.203C1179.43 506.494 1178.08 504.479 1177.13 502.16C1176.2 499.816 1175.74 497.29 1175.74 494.58V493.078C1175.74 489.978 1176.23 487.17 1177.21 484.655C1178.18 482.141 1179.52 479.992 1181.23 478.21C1182.94 476.428 1184.92 475.061 1187.17 474.108C1189.44 473.132 1191.85 472.644 1194.42 472.644C1197.27 472.644 1199.8 473.132 1202 474.108C1204.2 475.061 1206.04 476.391 1207.53 478.1C1209.02 479.833 1210.14 481.896 1210.9 484.289C1211.65 486.682 1212.03 489.294 1212.03 492.126V495.898H1184.57V496.081C1184.83 497.814 1185.25 499.267 1185.81 500.439C1186.37 501.611 1187.14 502.661 1188.12 503.588C1189.1 504.565 1190.24 505.322 1191.56 505.859C1192.9 506.396 1194.37 506.665 1195.96 506.665C1198.13 506.665 1200.15 506.25 1202.03 505.419C1203.91 504.565 1205.46 503.356 1206.69 501.794L1211.37 506.335C1210.05 508.239 1208.03 509.948 1205.29 511.462C1202.58 512.976 1199.3 513.732 1195.44 513.732ZM1194.38 479.748C1193.14 479.748 1191.98 479.98 1190.9 480.444C1189.85 480.883 1188.91 481.518 1188.08 482.348C1187.25 483.203 1186.56 484.228 1185.99 485.424C1185.43 486.621 1185.02 487.976 1184.75 489.489H1203.39V488.903C1203.39 487.756 1203.18 486.621 1202.77 485.498C1202.35 484.35 1201.77 483.349 1201.01 482.495C1200.28 481.665 1199.35 481.005 1198.23 480.517C1197.13 480.004 1195.85 479.748 1194.38 479.748Z" fill="#FFA629"/>
<path d="M149.433 287H140.608V244.52L126.948 249.537V241.81L148.884 233.68H149.433V287ZM159.687 400H123.908V393.921L141.267 375.024C142.707 373.438 143.916 372.021 144.892 370.776C145.869 369.507 146.662 368.347 147.273 367.297C147.859 366.248 148.274 365.271 148.518 364.368C148.786 363.44 148.921 362.512 148.921 361.584C148.921 360.339 148.738 359.204 148.371 358.179C148.005 357.153 147.468 356.274 146.76 355.542C146.052 354.81 145.198 354.236 144.197 353.821C143.22 353.406 142.121 353.198 140.901 353.198C139.338 353.198 137.983 353.418 136.836 353.857C135.688 354.297 134.736 354.919 133.979 355.725C133.198 356.58 132.612 357.617 132.221 358.838C131.831 360.034 131.635 361.401 131.635 362.939H122.846C122.846 360.62 123.274 358.435 124.128 356.384C124.983 354.309 126.203 352.502 127.79 350.964C129.353 349.426 131.257 348.206 133.503 347.302C135.774 346.399 138.301 345.947 141.084 345.947C143.696 345.947 146.028 346.326 148.078 347.083C150.154 347.839 151.899 348.889 153.315 350.232C154.707 351.575 155.769 353.186 156.501 355.066C157.234 356.921 157.6 358.972 157.6 361.218C157.6 362.903 157.319 364.539 156.758 366.125C156.22 367.688 155.476 369.238 154.524 370.776C153.547 372.314 152.387 373.865 151.045 375.427C149.726 376.99 148.286 378.601 146.723 380.261L134.858 392.932H159.687V400ZM135.005 482.385H140.241C141.804 482.385 143.171 482.177 144.343 481.762C145.515 481.323 146.479 480.712 147.236 479.931C147.944 479.248 148.481 478.405 148.847 477.404C149.238 476.379 149.433 475.28 149.433 474.108C149.433 472.839 149.25 471.704 148.884 470.703C148.542 469.702 148.03 468.847 147.346 468.139C146.662 467.48 145.796 466.967 144.746 466.601C143.72 466.235 142.536 466.052 141.194 466.052C139.997 466.052 138.886 466.235 137.861 466.601C136.86 466.943 135.993 467.443 135.261 468.103C134.504 468.762 133.906 469.555 133.467 470.483C133.052 471.411 132.844 472.448 132.844 473.596H124.092C124.092 471.472 124.519 469.519 125.373 467.736C126.228 465.954 127.412 464.404 128.926 463.085C130.439 461.792 132.221 460.778 134.272 460.046C136.347 459.313 138.618 458.947 141.084 458.947C143.598 458.947 145.906 459.277 148.005 459.936C150.129 460.571 151.936 461.523 153.425 462.792C154.939 464.086 156.111 465.673 156.941 467.553C157.771 469.433 158.186 471.618 158.186 474.108C158.186 475.207 158.015 476.306 157.673 477.404C157.356 478.503 156.867 479.565 156.208 480.59C155.549 481.591 154.719 482.531 153.718 483.41C152.717 484.289 151.545 485.034 150.202 485.644C151.789 486.181 153.132 486.889 154.231 487.768C155.354 488.623 156.269 489.587 156.977 490.661C157.685 491.76 158.198 492.944 158.515 494.213C158.833 495.458 158.991 496.752 158.991 498.095C158.991 500.585 158.528 502.807 157.6 504.76C156.697 506.689 155.451 508.312 153.865 509.631C152.253 510.974 150.349 511.999 148.152 512.707C145.979 513.391 143.623 513.732 141.084 513.732C138.789 513.732 136.579 513.415 134.455 512.78C132.331 512.146 130.464 511.193 128.852 509.924C127.241 508.654 125.947 507.092 124.97 505.236C124.018 503.356 123.542 501.171 123.542 498.681H132.295C132.295 499.853 132.502 500.939 132.917 501.94C133.357 502.917 133.979 503.747 134.785 504.431C135.566 505.139 136.494 505.688 137.568 506.079C138.667 506.469 139.875 506.665 141.194 506.665C142.61 506.665 143.879 506.481 145.002 506.115C146.15 505.725 147.114 505.151 147.895 504.394C148.652 503.686 149.226 502.807 149.616 501.757C150.031 500.683 150.239 499.462 150.239 498.095C150.239 496.557 150.007 495.239 149.543 494.14C149.079 493.042 148.408 492.126 147.529 491.394C146.65 490.686 145.588 490.161 144.343 489.819C143.122 489.453 141.755 489.27 140.241 489.27H135.005V482.385ZM154.524 606.994H161.225V614.098H154.524V626H145.771V614.098H122.7L122.48 608.715L145.515 572.68H154.524V606.994ZM131.416 606.994H145.771V584.398L144.746 586.303L131.416 606.994Z" fill="#757575"/>
<circle cx="101" cy="106" r="19" fill="#626C7E"/>
<circle cx="173" cy="106" r="19" fill="#626C7E"/>
<circle cx="243" cy="106" r="19" fill="#626C7E"/>
</svg>
