<svg fill="none" height="752" viewBox="0 0 1567 752" width="1567" xmlns="http://www.w3.org/2000/svg" xmlns:xlink="http://www.w3.org/1999/xlink"><filter id="a" color-interpolation-filters="sRGB" filterUnits="userSpaceOnUse" height="340" width="340" x="986" y="142"><feFlood flood-opacity="0" result="BackgroundImageFix"/><feColorMatrix in="SourceAlpha" result="hardAlpha" type="matrix" values="0 0 0 0 0 0 0 0 0 0 0 0 0 0 0 0 0 0 127 0"/><feOffset dy="4"/><feGaussianBlur stdDeviation="15"/><feComposite in2="hardAlpha" operator="out"/><feColorMatrix type="matrix" values="0 0 0 0 0.423529 0 0 0 0 0.756863 0 0 0 0 1 0 0 0 0.44 0"/><feBlend in2="BackgroundImageFix" mode="normal" result="effect1_dropShadow_167_16"/><feBlend in="SourceGraphic" in2="effect1_dropShadow_167_16" mode="normal" result="shape"/></filter><path d="m0 50c0-27.6143 22.3858-50 50-50h1467c27.61 0 50 22.3858 50 50v652c0 27.614-22.39 50-50 50h-1467c-27.6143 0-50-22.386-50-50z" fill="#fff"/><g fill="#6cc1ff" fill-opacity=".24" opacity=".85"><rect height="645" rx="38.5" width="700" x="806" y="54"/><rect height="55" rx="27.5" width="272" x="859" y="120"/><rect height="54" rx="27" width="522" x="859" y="234"/><rect height="55" rx="27.5" width="439" x="859" y="461"/><rect height="55" rx="27.5" width="377" x="859" y="569"/><rect height="55" rx="27.5" width="567" x="859" y="347"/></g><g opacity=".85"><rect fill="#ffe8a3" fill-opacity=".3" height="645" rx="38.5" width="700" x="62" y="52"/><g fill="#f8d97a" fill-opacity=".29"><rect height="55" rx="27.5" width="272" x="115" y="118"/><rect height="54" rx="27" width="522" x="115" y="232"/><rect height="55" rx="27.5" width="439" x="115" y="459"/><rect height="55" rx="27.5" width="377" x="115" y="567"/><rect height="55" rx="27.5" width="567" x="115" y="345"/></g></g><path d="m537 382.75h-250v-156.25h250m0-31.25h-125l-31.25-31.25h-93.75c-17.344 0-31.25 13.906-31.25 31.25v187.5c0 8.288 3.292 16.237 9.153 22.097 5.86 5.861 13.809 9.153 22.097 9.153h250c8.288 0 16.237-3.292 22.097-9.153 5.861-5.86 9.153-13.809 9.153-22.097v-156.25c0-8.288-3.292-16.237-9.153-22.097-5.86-5.861-13.809-9.153-22.097-9.153z" fill="#ffd146"/><path d="m286.583 226.5h250.834v156.667h-250.834z" fill="#ffd146"/><rect fill="#ffe28b" height="156.667" rx="12" width="250.833" x="286.583" y="226.5"/><path d="m277.078 548.203 6.016-2.422v-37.578l-6.016-2.422v-6.797l18.399-.39h22.421v15.195h-7.46l-1.993-5.586h-12.968v13.985h16.562v8.828h-16.562v14.765l7.382 2.422v6.797h-25.781zm46.016 0 6.015-2.422v-37.578l-6.015-2.422v-6.797l24.414-.39v7.187l-6.016 2.422v37.578l6.016 2.422v6.797h-24.414zm62.383-11.601h7.578v18.398h-40v-6.797l6.015-2.422v-37.578l-6.015-2.422v-6.797l24.414-.39v7.187l-6.016 2.422v37.188h12.266zm46.562-6.407h-16.172v15.196h14.336l1.836-6.563h7.188v16.172h-41.758v-6.797l6.015-2.422v-37.578l-6.015-2.422v-6.797l18.398-.39h22.422v15.429h-7.227l-1.992-5.82h-13.203v13.203h16.172zm16.953-5.429c0-2.24.677-4.011 2.031-5.313 1.381-1.328 3.021-1.992 4.922-1.992 2.188 0 3.841.638 4.961 1.914 1.12 1.25 1.68 3.047 1.68 5.391 0 2.187-.677 3.932-2.031 5.234s-2.969 1.953-4.844 1.953c-2.188 0-3.854-.625-5-1.875s-1.719-3.021-1.719-5.312zm0 23.984c0-2.188.677-3.932 2.031-5.234 1.381-1.302 3.021-1.954 4.922-1.954 2.188 0 3.841.626 4.961 1.876s1.68 3.02 1.68 5.312c0 2.24-.664 4.023-1.992 5.352-1.328 1.302-2.956 1.953-4.883 1.953-2.188 0-3.854-.625-5-1.875-1.146-1.276-1.719-3.086-1.719-5.43zm32.774 6.25h-12.149l26.641-56.406h12.226zm41.25 0h-12.149l26.641-56.406h12.226z" fill="#404040"/><path d="m273.484 562.969h277.032v3.984h-277.032z" fill="#404040"/><g filter="url(#a)"><path d="m1238.6 383.46c-3.64-11.2-14.14-19.46-26.6-19.46h-14v-42c0-3.713-1.47-7.274-4.1-9.899-2.63-2.626-6.19-4.101-9.9-4.101h-84v-28h28c3.71 0 7.27-1.475 9.9-4.101 2.63-2.625 4.1-6.186 4.1-9.899v-28h28c7.43 0 14.55-2.95 19.8-8.201s8.2-12.373 8.2-19.799v-5.74c16.75 6.753 31.62 17.465 43.32 31.218 11.71 13.753 19.91 30.138 23.9 47.752s3.65 35.933-.98 53.389c-4.64 17.455-13.44 33.528-25.64 46.841zm-96.6 35.56c-55.3-6.86-98-53.9-98-111.02 0-8.68 1.12-17.08 2.94-25.06l67.06 67.06v14c0 7.426 2.95 14.548 8.2 19.799s12.37 8.201 19.8 8.201m14-224c-18.39 0-36.59 3.621-53.58 10.657-16.98 7.036-32.41 17.348-45.41 30.348-26.26 26.255-41.01 61.865-41.01 98.995s14.75 72.74 41.01 98.995c13 13 28.43 23.312 45.41 30.348 16.99 7.036 35.19 10.657 53.58 10.657 37.13 0 72.74-14.75 98.99-41.005 26.26-26.255 41.01-61.865 41.01-98.995 0-18.385-3.62-36.59-10.66-53.576-7.03-16.985-17.34-32.419-30.35-45.419-13-13-28.43-23.312-45.41-30.348-16.99-7.036-35.19-10.657-53.58-10.657z" fill="#6cc1ff"/></g><g fill="#404040"><path d="m987.799 550.628 5.603-2.271v-35.229l-5.603-2.271v-6.372l23.251-.366v6.738l-6 2.271v12.012h19.63v-12.012l-6.01-2.271v-6.372l23.26-.366v6.738l-5.61 2.271v35.229l5.61 2.271v6.372h-23.26v-6.372l6.01-2.271v-14.245h-19.63v14.245l6 2.271v6.372h-23.251zm73.421-37.5h-7.14l-1.86 7.104h-6.93v-16.113h43.51v16.113h-6.96l-1.87-7.104h-7.14v35.229l7.14 2.271v6.372h-25.89v-6.372l7.14-2.271zm44.98 0h-7.15l-1.86 7.104h-6.92v-16.113h43.5v16.113h-6.96l-1.86-7.104h-7.15v35.229l7.15 2.271v6.372h-25.9v-6.372l7.15-2.271zm30.94 37.5 5.6-2.271v-35.229l-5.6-2.271v-6.372l17.25-.366h7.1c5.69 0 10.15 1.404 13.37 4.212 3.25 2.807 4.87 6.652 4.87 11.535 0 6.201-1.84 10.877-5.53 14.026-3.66 3.15-8.95 4.724-15.86 4.724h-3.95v9.741l5.6 2.271v6.372h-22.85zm21.2-20.764c3.15 0 5.57-.72 7.25-2.161 1.69-1.465 2.53-3.577 2.53-6.335 0-2.491-.67-4.48-2.01-5.97-1.32-1.513-3.23-2.27-5.72-2.27h-6v16.736zm36.33 17.175c.15.098.54.269 1.17.513.66.244 1.53.488 2.6.732 1.08.22 2.26.33 3.56.33 2.54 0 4.68-.537 6.44-1.612 1.76-1.074 2.64-2.563 2.64-4.467 0-1.148-.39-2.112-1.17-2.893-.76-.782-1.74-1.429-2.93-1.941-1.18-.537-2.88-1.209-5.13-2.014-3.3-1.148-6.02-2.283-8.17-3.406s-4.01-2.747-5.6-4.871c-1.56-2.124-2.34-4.883-2.34-8.276 0-3.345.81-6.214 2.45-8.606 1.66-2.417 3.93-4.236 6.81-5.457 2.88-1.22 6.14-1.831 9.78-1.831 2.49 0 4.96.22 7.4.659 2.46.44 4.49.904 6.08 1.392 1.61.464 2.62.781 3.04.952l-.41 13.623h-6.88l-1.87-6.372c-.2-.049-.62-.159-1.28-.329-.66-.171-1.48-.342-2.46-.513-.97-.195-1.92-.293-2.85-.293-2.54 0-4.51.5-5.9 1.501s-2.09 2.283-2.09 3.846c0 1.611.75 2.88 2.24 3.808 1.51.903 3.89 1.929 7.14 3.076 3.3 1.148 6.01 2.271 8.13 3.369 2.15 1.099 3.98 2.674 5.49 4.725 1.54 2.05 2.31 4.675 2.31 7.873 0 3.662-.88 6.812-2.64 9.448-1.75 2.613-4.16 4.602-7.21 5.97-3.05 1.342-6.52 2.014-10.4 2.014-2.49 0-4.98-.22-7.47-.659-2.47-.415-4.52-.843-6.15-1.282-1.64-.464-2.68-.769-3.12-.916v-14.392h7.66zm36.99-18.384c0-2.099.63-3.759 1.9-4.98 1.3-1.245 2.84-1.868 4.62-1.868 2.05 0 3.6.598 4.65 1.795 1.05 1.171 1.57 2.856 1.57 5.053 0 2.051-.63 3.687-1.9 4.907-1.27 1.221-2.78 1.832-4.54 1.832-2.05 0-3.62-.586-4.69-1.758s-1.61-2.832-1.61-4.981zm0 22.486c0-2.051.63-3.687 1.9-4.908 1.3-1.22 2.84-1.831 4.62-1.831 2.05 0 3.6.586 4.65 1.758s1.57 2.832 1.57 4.981c0 2.099-.62 3.772-1.86 5.017-1.25 1.22-2.78 1.831-4.58 1.831-2.05 0-3.62-.586-4.69-1.758-1.07-1.196-1.61-2.893-1.61-5.09zm30.72 5.859h-11.38l24.97-52.881h11.46zm38.68 0h-11.39l24.97-52.881h11.46z"/><path d="m985.163 564.471h341.677v3.735h-341.677z"/></g></svg>