<svg fill="none" height="792" viewBox="0 0 1607 792" width="1607" xmlns="http://www.w3.org/2000/svg" xmlns:xlink="http://www.w3.org/1999/xlink"><linearGradient id="a"><stop offset=".53" stop-color="#fc0"/><stop offset="1" stop-color="#c6c6c6"/></linearGradient><linearGradient id="b" gradientUnits="userSpaceOnUse" x1="131" x2="611" xlink:href="#a" y1="341.5" y2="341.5"/><linearGradient id="c" gradientUnits="userSpaceOnUse" x1="131" x2="519" xlink:href="#a" y1="537.5" y2="537.5"/><linearGradient id="d" gradientUnits="userSpaceOnUse" x1="131" x2="934" xlink:href="#a" y1="635.5" y2="635.5"/><path d="m1537 10h-1467c-33.1371 0-60 26.8629-60 60v652c0 33.137 26.8629 60 60 60h1467c33.14 0 60-26.863 60-60v-652c0-33.1371-26.86-60-60-60z" fill="#fff" stroke="#f2f2f2" stroke-width="20"/><g fill="#000" fill-opacity=".05"><rect height="556" rx="38.5" width="1444" x="82" y="163"/><rect height="49" rx="24.5" width="1444" x="82" y="74"/><rect height="47" rx="23.5" width="251" x="131" y="220"/></g><rect fill="url(#b)" height="47" opacity=".32" rx="23.5" width="480" x="131" y="318"/><rect fill="url(#c)" height="47" opacity=".32" rx="23.5" width="388" x="131" y="514"/><rect fill="url(#d)" height="47" opacity=".32" rx="23.5" width="803" x="131" y="612"/><rect fill="#000" fill-opacity=".05" height="47" rx="23.5" width="1232" x="131" y="416"/><path d="m756.296 233.299c-6.455 0-11.863-2.197-16.222-6.591s-6.547-9.825-6.562-16.294 2.172-11.901 6.562-16.295 9.797-6.591 16.222-6.591h91.136c6.456 0 11.871 2.197 16.245 6.591 4.375 4.394 6.554 9.826 6.539 16.295s-2.202 11.908-6.562 16.317c-4.359 4.409-9.766 6.599-16.222 6.568zm45.568 434.829c-28.1 0-54.59-5.432-79.47-16.295-24.881-10.863-46.617-25.647-65.208-44.352-18.592-18.706-33.303-40.546-44.133-65.522s-16.245-51.577-16.245-79.803c0-28.225 5.415-54.834 16.245-79.825s25.541-46.824 44.133-65.499c18.591-18.675 40.335-33.451 65.23-44.329 24.896-10.879 51.378-16.318 79.448-16.318 23.544 0 46.138 3.814 67.783 11.443 21.644 7.629 41.96 18.69 60.947 33.184l15.949-16.02c4.177-4.195 9.493-6.293 15.948-6.293 6.456 0 11.772 2.098 15.949 6.293 4.177 4.196 6.266 9.536 6.266 16.02s-2.089 11.824-6.266 16.02l-15.949 16.02c14.43 19.072 25.442 39.478 33.037 61.219 7.592 21.742 11.392 44.437 11.392 68.085 0 28.226-5.41 54.835-16.245 79.826-10.83 24.991-25.541 46.824-44.132 65.499-18.592 18.674-40.336 33.459-65.231 44.352-24.895 10.894-51.378 16.325-79.448 16.295zm0-45.772c44.049 0 81.643-15.638 112.781-46.915s46.707-69.039 46.707-113.285c0-44.245-15.569-82.007-46.707-113.284s-68.732-46.916-112.781-46.916-81.643 15.639-112.781 46.916-46.707 69.039-46.707 113.284c0 44.246 15.569 82.008 46.707 113.285s68.732 46.915 112.781 46.915z" fill="#ffe064" stroke="#d7c26e" stroke-width="14"/><path d="m788.573 488.898h-66.453l93.035-145.442v83.11h66.453l-93.035 145.442z" fill="#ffe064" stroke="#d7c26e" stroke-width="14"/></svg>