<svg width="1607" height="792" viewBox="0 0 1607 792" fill="none" xmlns="http://www.w3.org/2000/svg">
<path d="M1537 10H70C36.8629 10 10 36.8629 10 70V722C10 755.137 36.8629 782 70 782H1537C1570.14 782 1597 755.137 1597 722V70C1597 36.8629 1570.14 10 1537 10Z" fill="white" stroke="#F2F2F2" stroke-width="20"/>
<rect x="449" y="74" width="1077" height="645" rx="38.5" fill="black" fill-opacity="0.05"/>
<rect x="82" y="74" width="304" height="645" rx="38.5" fill="black" fill-opacity="0.05"/>
<rect x="513" y="122" width="446" height="47" rx="23.5" fill="#28ABF2" fill-opacity="0.29"/>
<rect x="513" y="416" width="393" height="47" rx="23.5" fill="#FFBF00" fill-opacity="0.33"/>
<rect x="513" y="612" width="277" height="47" rx="23.5" fill="#FF0000" fill-opacity="0.19"/>
<rect x="148" y="132" width="172" height="35" rx="17.5" fill="#28ABF2" fill-opacity="0.29"/>
<rect x="148" y="194" width="152" height="35" rx="17.5" fill="#FFBF00" fill-opacity="0.33"/>
<rect x="148" y="256" width="117" height="35" rx="17.5" fill="#FF0000" fill-opacity="0.19"/>
<rect x="513" y="220" width="942" height="145" rx="38.5" fill="black" fill-opacity="0.05"/>
<rect x="513" y="514" width="942" height="47" rx="23.5" fill="black" fill-opacity="0.05"/>
</svg>
