<svg enable-background="new 0 0 36 36" viewBox="0 0 36 36"
  xmlns="http://www.w3.org/2000/svg">
  <path d="m33.2 23.7c.4 0 .8.3.8.7 0 .2-.1.3-.2.5l-1.4 1.7-1.4 1.7-2 2.5-.8 1c-.3.3-.7.4-1.1.1 0 0-.1-.1-.1-.1l-.8-1-2.4-2.8-1.2-1.4-1.4-1.7c-.3-.3-.2-.8.1-1.1.1-.1.3-.2.5-.2h1.3c.4 0 .8-.3.8-.8v-6.2c0-.4-.3-.8-.7-.8-.2 0-.4.1-.6.3l-1.3 1.5-4.3 5.2c-.3.3-.8.4-1.1.1 0 0-.1-.1-.1-.1l-4.3-5.2-1-1.2c-.3-.3-.7-.4-1.1-.1-.2.1-.3.4-.3.6v11c0 .4-.3.8-.8.8h-5.5c-.5.1-.8-.3-.8-.7v-23.3c0-.4.3-.7.8-.7h6.7c.1 0 .4.1.5.3l5.1 6 .7.9c.3.3.8.4 1.1.1 0 0 .1-.1.1-.1l.7-.9 5.1-6.1c0-.1.3-.2.5-.2h6.9c.4 0 .8.3.8.7v18.1c0 .4.3.8.8.8h1.4z" style="fill:none;stroke:#607cd2;stroke-width:1.7;stroke-linecap:round;stroke-linejoin:round;stroke-miterlimit:10"/>
</svg>
