<?xml version="1.0" encoding="utf-8"?>
<!-- Generator: Adobe Illustrator 25.3.1, SVG Export Plug-In . SVG Version: 6.00 Build 0)  -->
<svg version="1.1" id="md-reader"
  xmlns="http://www.w3.org/2000/svg"
  xmlns:xlink="http://www.w3.org/1999/xlink" x="0px" y="0px" viewBox="0 0 36 36" style="enable-background:new 0 0 36 36;" xml:space="preserve">
  <style type="text/css">
	.st0{fill:none;stroke:#607cd2;stroke-width:1.5;stroke-linecap:round;stroke-linejoin:round;stroke-miterlimit:10;}
  </style>
  <path class="st0" d="M33.2,23.7c0.4,0,0.8,0.3,0.8,0.7c0,0.2-0.1,0.3-0.2,0.5l-1.4,1.7L31,28.3l-2,2.5l-0.8,1
	c-0.3,0.3-0.7,0.4-1.1,0.1c0,0-0.1-0.1-0.1-0.1l-0.8-1L23.8,28l-1.2-1.4l-1.4-1.7c-0.3-0.3-0.2-0.8,0.1-1.1c0.1-0.1,0.3-0.2,0.5-0.2
	h1.3c0.4,0,0.8-0.3,0.8-0.8l0,0v-6.2c0-0.4-0.3-0.8-0.7-0.8c-0.2,0-0.4,0.1-0.6,0.3l-1.3,1.5l-4.3,5.2c-0.3,0.3-0.8,0.4-1.1,0.1
	c0,0-0.1-0.1-0.1-0.1l-4.3-5.2l-1-1.2c-0.3-0.3-0.7-0.4-1.1-0.1c-0.2,0.1-0.3,0.4-0.3,0.6v11c0,0.4-0.3,0.8-0.8,0.8l0,0H2.8
	C2.3,28.8,2,28.4,2,28V4.7C2,4.3,2.3,4,2.8,4h6.7C9.6,4,9.9,4.1,10,4.3l5.1,6l0.7,0.9c0.3,0.3,0.8,0.4,1.1,0.1c0,0,0.1-0.1,0.1-0.1
	l0.7-0.9l5.1-6.1C22.8,4.1,23.1,4,23.3,4h6.9C30.6,4,31,4.3,31,4.7c0,0,0,0,0,0v18.1c0,0.4,0.3,0.8,0.8,0.8l0,0H33.2z"/>
</svg>
